<?xml version="1.0" standalone="no"?>
<!DOCTYPE svg PUBLIC "-//W3C//DTD SVG 1.1//EN" "http://www.w3.org/Graphics/SVG/1.1/DTD/svg11.dtd" >
<svg xmlns="http://www.w3.org/2000/svg">
<metadata>Generated by IcoMoon</metadata>
<defs>
<font id="evenprom" horiz-adv-x="1024">
<font-face units-per-em="1024" ascent="960" descent="-64" />
<missing-glyph horiz-adv-x="1024" />
<glyph unicode="&#x20;" horiz-adv-x="512" d="" />
<glyph unicode="&#xe900;" d="M245.256 575.756c135.454 0 245.256-90.736 245.256-202.666 0-80.574-56.902-150.164-139.314-182.828 2.478-12.356 18.428-51.286 42.996-77.964 0 0-85.696 27.636-125.354 63.168-12.594-1.648-21.984-2.43-35.134-2.43-135.452 0-233.706 88.128-233.706 200.054 0 111.93 109.806 202.666 245.256 202.666z" />
<glyph unicode="&#xe901;" d="M394.194 112.298c-24.568 26.68-40.518 65.61-42.996 77.964 82.412 32.664 139.314 102.254 139.314 182.828 0 111.928-109.802 202.666-245.256 202.666 0 0 106.37-4.226 170.3-73.312s70.422-141.020 30.502-211.668c-39.924-70.644-119.010-90.226-119.010-90.226s10.142-58.248 67.146-88.252z" />
<glyph unicode="&#xe902;" d="M277.12 375.478c0-19.33-15.67-35-35-35s-35 15.67-35 35c0 19.33 15.67 35 35 35s35-15.67 35-35z" />
<glyph unicode="&#xe903;" d="M272.356 375.478c0-18.014-14.604-32.618-32.618-32.618s-32.618 14.604-32.618 32.618c0 18.014 14.604 32.618 32.618 32.618s32.618-14.604 32.618-32.618z" />
<glyph unicode="&#xe904;" d="M178.112 375.478c0-19.33-15.67-35-35-35s-35 15.67-35 35c0 19.33 15.67 35 35 35s35-15.67 35-35z" />
<glyph unicode="&#xe905;" d="M173.348 375.478c0-18.014-14.604-32.618-32.618-32.618s-32.618 14.604-32.618 32.618c0 18.014 14.604 32.618 32.618 32.618s32.618-14.604 32.618-32.618z" />
<glyph unicode="&#xe906;" d="M490.512 373.092c0 77.826-53.084 145.404-130.966 179.362l-231.456-359.316c33.128-12.232 49.832-17.636 100.604-19.914 13.136-0.59 27.552 0.594 40.146 2.242 39.658-35.532 125.354-63.168 125.354-63.168-24.568 26.68-40.518 65.61-42.996 77.964 82.412 32.666 139.314 102.256 139.314 182.83z" />
<glyph unicode="&#xe907;" d="M359.546 552.454c0 0-24.322-70.184-0.986-136.324s94.246-131.114 105.884-134.062l11.846 22.848-111.792 245.308-4.952 2.23z" />
<glyph unicode="&#xe908;" d="M691.282 783.702c-183.76 0-332.722-123.094-332.722-274.94 0-109.308 77.198-203.714 188.996-248.026-3.362-16.766-13.954-50.254-47.284-86.442 0 0 84.774 14.742 138.574 62.938 17.084-2.234 34.592-3.41 52.436-3.41 183.754 0 332.718 123.098 332.718 274.94 0 151.846-148.964 274.94-332.718 274.94z" />
<glyph unicode="&#xe909;" d="M500.272 174.294c33.33 36.188 43.922 69.676 47.284 86.442-111.798 44.312-188.996 138.718-188.996 248.026 0 151.846 148.962 274.94 332.722 274.94 0 0-144.304-5.736-231.036-99.458-86.728-93.722-95.54-191.31-41.378-287.15 54.16-95.844 161.45-122.406 161.45-122.406s-2.714-59.694-80.046-100.394z" />
<glyph unicode="&#xe90a;" d="M608.702 512.002c0-26.224-21.258-47.482-47.482-47.482s-47.482 21.258-47.482 47.482c0 26.224 21.258 47.482 47.482 47.482s47.482-21.258 47.482-47.482z" />
<glyph unicode="&#xe90b;" d="M608.702 512.002c0-24.44-19.812-44.252-44.252-44.252s-44.252 19.812-44.252 44.252c0 24.44 19.812 44.252 44.252 44.252s44.252-19.812 44.252-44.252z" />
<glyph unicode="&#xe90c;" d="M743.018 512.002c0-26.224-21.258-47.482-47.482-47.482s-47.482 21.258-47.482 47.482c0 26.224 21.258 47.482 47.482 47.482s47.482-21.258 47.482-47.482z" />
<glyph unicode="&#xe90d;" d="M743.018 512.002c0-24.44-19.812-44.252-44.252-44.252s-44.252 19.812-44.252 44.252c0 24.44 19.812 44.252 44.252 44.252s44.252-19.812 44.252-44.252z" />
<glyph unicode="&#xe90e;" d="M877.334 512.002c0-26.224-21.258-47.482-47.482-47.482s-47.482 21.258-47.482 47.482c0 26.224 21.258 47.482 47.482 47.482s47.482-21.258 47.482-47.482z" />
<glyph unicode="&#xe90f;" d="M877.332 512.002c0-24.439-19.811-44.25-44.25-44.25s-44.25 19.811-44.25 44.25c0 24.439 19.811 44.25 44.25 44.25s44.25-19.811 44.25-44.25z" />
<glyph unicode="&#xe910;" d="M939.186 636.907c0 0-169.5 155.756-254.25 242.796s-172.936 80.168-172.936 80.168-88.186 6.874-172.936-80.168-254.25-242.796-254.25-242.796l-20.614-75.588v-625.319h895.604v625.319l-20.616 75.588z" />
<glyph unicode="&#xe911;" d="M886.504 267.295c0-14.36-11.64-26-26-26h-678.685c-14.36 0-26 11.64-26 26v476.465c0 14.36 11.64 26 26 26h678.685c14.36 0 26-11.64 26-26v-476.465z" />
<glyph unicode="&#xe912;" d="M378.767 298.669l31.294 1.526-267.221 250.434-78.642 10.69z" />
<glyph unicode="&#xe913;" d="M645.043 298.669l-31.294 1.526 267.221 250.434 78.642 10.69z" />
<glyph unicode="&#xe914;" d="M64.198 561.319v-625.317l314.825 363.053-239.236 245.466z" />
<glyph unicode="&#xe915;" d="M959.612 561.319v-625.317l-314.823 363.053 239.234 245.466z" />
<glyph unicode="&#xe916;" d="M64.198-63.998v75.586l303.971 298.603 10.854-11.136z" />
<glyph unicode="&#xe917;" d="M959.612-63.998v75.586l-303.969 298.603-10.854-11.136z" />
<glyph unicode="&#xe918;" d="M937.372 8.154c0 0-241.718 253.102-263.593 273.717s-39.376 18.322-39.376 18.322h-244.998c0 0-17.5 2.292-39.376-18.322-21.876-20.616-263.591-273.717-263.591-273.717l-20.784-72.152h892.5l-20.782 72.152z" />
<glyph unicode="&#xe919;" d="M264.267 506.319l59.71 111.124 25.482-61.47c0 0-0.578 27.93 18.618 27.486s33.854-77.14 33.854-77.14h-137.664z" />
<glyph unicode="&#xe91a;" d="M373.205 605.271c0-6.724-5.45-12.174-12.174-12.174s-12.174 5.45-12.174 12.174c0 6.724 5.45 12.174 12.174 12.174s12.174-5.45 12.174-12.174z" />
<glyph unicode="&#xe91b;" d="M747.305 593.385c0-6.324-5.126-11.454-11.454-11.454h-225.098c-6.326 0-11.454 5.128-11.454 11.454v0.432c0 6.324 5.128 11.454 11.454 11.454h225.098c6.326 0 11.454-5.128 11.454-11.454v-0.432z" />
<glyph unicode="&#xe91c;" d="M747.305 549.435c0-6.324-5.126-11.454-11.454-11.454h-225.098c-6.326 0-11.454 5.128-11.454 11.454v0.432c0 6.324 5.128 11.454 11.454 11.454h225.098c6.326 0 11.454-5.128 11.454-11.454v-0.432z" />
<glyph unicode="&#xe91d;" d="M747.305 505.481c0-6.324-5.126-11.452-11.454-11.452h-225.098c-6.326 0-11.454 5.126-11.454 11.452v0.432c0 6.326 5.128 11.454 11.454 11.454h225.098c6.326 0 11.454-5.126 11.454-11.454v-0.432z" />
<glyph unicode="&#xe91e;" d="M333.101 769.76l-27.846-51.156h44.204l27.846 51.156z" />
<glyph unicode="&#xe91f;" d="M288.895 769.76l-27.844-51.156h44.204l27.846 51.156z" />
<glyph unicode="&#xe920;" d="M377.305 769.76l-27.846-51.156h44.206l27.844 51.156z" />
<glyph unicode="&#xe921;" d="M465.715 769.76l-27.846-51.156h44.206l27.844 51.156z" />
<glyph unicode="&#xe922;" d="M155.82 769.76v-51.156h16.82l27.846 51.156z" />
<glyph unicode="&#xe923;" d="M200.486 769.76l-27.846-51.156h44.204l27.846 51.156z" />
<glyph unicode="&#xe924;" d="M730.943 769.76l-27.844-51.156h44.206l27.844 51.156z" />
<glyph unicode="&#xe925;" d="M819.354 769.76l-27.846-51.156h44.206l27.846 51.156z" />
<glyph unicode="&#xe926;" d="M509.919 769.76l-27.844-51.156h44.204l27.846 51.156z" />
<glyph unicode="&#xe927;" d="M863.56 769.76l-27.846-51.156h50.79v51.156z" />
<glyph unicode="&#xe928;" d="M686.739 769.76l-27.844-51.156h44.204l27.844 51.156z" />
<glyph unicode="&#xe929;" d="M554.125 769.76l-27.846-51.156h44.206l27.844 51.156z" />
<glyph unicode="&#xe92a;" d="M421.509 769.76l-27.844-51.156h44.204l27.846 51.156z" />
<glyph unicode="&#xe92b;" d="M244.69 769.76l-27.846-51.156h44.206l27.844 51.156z" />
<glyph unicode="&#xe92c;" d="M775.15 769.76l-27.844-51.156h44.202l27.846 51.156z" />
<glyph unicode="&#xe92d;" d="M598.329 769.76l-27.844-51.156h44.204l27.844 51.156z" />
<glyph unicode="&#xe92e;" d="M642.533 769.76l-27.844-51.156h44.206l27.844 51.156z" />
<glyph unicode="&#xe92f;" d="M347.501 174.688c4.496-15.524-4.442-31.754-19.964-36.246l-26.454-7.66c-15.524-4.496-31.75 4.442-36.246 19.964l-79.958 276.105c-4.496 15.524 4.442 31.75 19.964 36.246l26.454 7.66c15.524 4.496 31.75-4.446 36.246-19.968l79.958-276.101z" />
<glyph unicode="&#xe930;" d="M184.882 426.851l-21.8-7.044 71.428-249.582 22.736 6.738z" />
<glyph unicode="&#xe931;" d="M142.424 505.007l20.656-85.2 71.43-249.582c0 0 9.468-30.122 15.492-37.008 0 0-15.492-24.958-24.958-24.958 0 0-8.606 11.188-23.238 61.964-14.628 50.78-63.682 222.904-63.682 222.904s-8.61 28.398-12.050 51.636c-3.44 23.238-12.91 60.242-12.91 60.242h29.26c0 0 0 0.002 0 0.002z" />
<glyph unicode="&#xe932;" d="M201.808 170.226c-14.63 50.778-63.684 222.902-63.684 222.902s-8.61 28.398-12.050 51.636c-3.44 23.238-12.91 60.242-12.91 60.242l-37.868-7.746c0 0-1.144-96.102 8.036-160.364 9.18-64.258 34.426-139.418 53.93-166.672 19.508-27.254 25.82-33.566 25.82-33.566s47.332-26.68 61.964-28.398c0 0.002-8.606 11.188-23.238 61.966z" />
<glyph unicode="&#xe933;" d="M234.51 170.226c0 0 9.468-30.122 15.492-37.008 0 0 1.722 14.058-7.746 39.304l-7.746-2.296z" />
<glyph unicode="&#xe934;" d="M113.164 508.451c0 0-12.046 41.308-6.024 80.036 6.024 38.73 24.958 101.554 60.242 161.796l-15.488 9.468c0 0-40.45-76.594-52.5-114.464-12.046-37.868-24.16-121.336-24.14-143.722l37.91 6.886z" />
<glyph unicode="&#xe935;" d="M113.164 508.451c0 0-12.046 41.308-6.024 80.036 6.024 38.73 24.958 101.554 60.242 161.796l18.648-11.762c0 0-80.328-110.73-45.328-230.070h-27.538z" />
<glyph unicode="&#xe936;" d="M628.185 174.688c-4.496-15.524 4.446-31.754 19.968-36.246l26.45-7.66c15.524-4.496 31.754 4.442 36.25 19.964l79.958 276.105c4.492 15.524-4.446 31.75-19.968 36.246l-26.454 7.66c-15.524 4.496-31.75-4.446-36.246-19.968l-79.958-276.101z" />
<glyph unicode="&#xe937;" d="M790.81 426.851l21.796-7.044-71.43-249.582-22.734 6.738z" />
<glyph unicode="&#xe938;" d="M833.262 505.007l-20.656-85.2-71.43-249.582c0 0-9.468-30.122-15.492-37.008 0 0 15.492-24.958 24.958-24.958 0 0 8.61 11.188 23.238 61.964s63.688 222.902 63.688 222.902 8.606 28.398 12.046 51.636 12.91 60.242 12.91 60.242l-29.262 0.004z" />
<glyph unicode="&#xe939;" d="M900.392 497.261l-37.868 7.746c0 0-9.468-37.004-12.91-60.242s-12.046-51.636-12.046-51.636-49.058-172.124-63.688-222.902c-14.63-50.778-23.238-61.964-23.238-61.964 14.632 1.718 61.964 28.398 61.964 28.398s6.312 6.312 25.82 33.566 44.754 102.414 53.934 166.672c9.18 64.26 8.032 160.362 8.032 160.362z" />
<glyph unicode="&#xe93a;" d="M741.177 170.226c0 0-9.468-30.122-15.492-37.008 0 0-1.722 14.058 7.746 39.304l7.746-2.296z" />
<glyph unicode="&#xe93b;" d="M862.524 508.451c0 0 12.046 41.308 6.024 80.036-6.024 38.73-24.958 101.554-60.242 161.796l15.492 9.468c0 0 40.45-76.594 52.496-114.464 12.050-37.868 24.16-121.336 24.144-143.722l-37.914 6.886z" />
<glyph unicode="&#xe93c;" d="M862.524 508.451c0 0 12.046 41.308 6.024 80.036-6.024 38.73-24.958 101.554-60.242 161.796l-18.644-11.762c0 0 80.328-110.73 45.328-230.070h27.534z" />
<glyph unicode="&#xe93d;" d="M657.123 919.252c-80.898 42.46-169.278 40.738-169.278 40.738s-88.382 1.722-169.282-40.738c-80.898-42.458-140.566-114.75-164.090-154.34l31.554-21.8c0 0 25.246 43.606 84.914 93.524 0 0 0.578 22.376 25.82 43.602 25.242 21.23 83.812 53.934 191.082 59.098 107.266-5.164 165.836-37.868 191.078-59.098 25.246-21.226 25.82-43.602 25.82-43.602 59.668-49.918 84.918-93.524 84.918-93.524l31.554 21.8c-23.524 39.59-83.192 111.882-164.090 154.34z" />
<glyph unicode="&#xe93e;" d="M697.287 871.056l-3.222-2.606c0 0 11.828-11.020 14.41-24.36 0 0 45.614-40.878 68.848-74.872 0 0 3.446 14.628-5.594 29.692-9.036 15.060-74.442 72.146-74.442 72.146z" />
<glyph unicode="&#xe93f;" d="M487.845 939.334c-101.376-4.878-159.254-34.356-186.614-55.496 0 0 13.032-12.492 30.532-17.082s43.316-2.872 57.95-2.008c14.628 0.86 98.132 1.434 98.132 1.434s83.5-0.574 98.132-1.434c14.628-0.864 40.45-2.582 57.95 2.008s30.528 17.082 30.528 17.082c-27.36 21.14-85.238 50.616-186.61 55.496z" />
<glyph unicode="&#xe940;" d="M889.47 316.331l14.128-4.926c0 0 10.016 21.16 28.856 14.59 18.84-6.562 19.684-21.824 10.926-46.946-12.86-36.894-23.376-36.746-28.086-35.106l-16.144-46.312-16.004 6.102 15.872 45.528c0 0-15.542 0.57-4.21 34.402l-11.946 4.16 6.608 28.508z" />
<glyph unicode="&#xe941;" d="M883.146 203.733c0 0-92.7-234.512-319.889-234.512v-17.68c0 0 230.852-11.106 335.893 246.090l-16.004 6.102z" />
<glyph unicode="&#xe942;" d="M563.369-51.074c0-7.136-6.648-12.926-14.844-12.926h-76.086c-8.2 0-14.844 5.79-14.844 12.926v20.532c0 7.136 6.644 12.922 14.844 12.922h76.086c8.196 0 14.844-5.786 14.844-12.922v-20.532z" />
<glyph unicode="&#xe943;" d="M278.405 871.056l3.218-2.606c0 0-11.824-11.020-14.406-24.36 0 0-45.614-40.878-68.852-74.872 0 0-3.442 14.628 5.594 29.692 9.036 15.060 74.446 72.146 74.446 72.146z" />
<glyph unicode="&#xe944;" d="M201.808 170.226c14.632-50.778 23.238-61.964 23.238-61.964-14.632 1.718-61.964 28.398-61.964 28.398s-6.312 6.312-25.82 33.566c-19.504 27.254-44.75 102.414-53.93 166.672-9.18 64.262-8.036 160.364-8.036 160.364l8.262 1.692c0 0 1.208-115.292 14.976-169.512s59.382-142.004 79.176-152.332c19.796-10.326 24.098-6.884 24.098-6.884z" />
<glyph unicode="&#xe945;" d="M773.88 170.226c-14.628-50.778-23.238-61.964-23.238-61.964 14.632 1.718 61.964 28.398 61.964 28.398s6.312 6.312 25.82 33.566 44.754 102.414 53.934 166.672c9.18 64.262 8.032 160.364 8.032 160.364l-8.258 1.692c0 0-1.208-115.292-14.98-169.512-13.77-54.218-59.382-142.004-79.176-152.332-19.794-10.326-24.098-6.884-24.098-6.884z" />
<glyph unicode="&#xe946;" d="M82.124 502.811c0 0 5.222 50.39 11.246 89.122 6.024 38.726 30.164 103.344 65.45 163.586l-6.926 4.234c0 0-40.45-76.594-52.5-114.464-12.046-37.868-24.16-121.336-24.14-143.722l6.87 1.244z" />
<glyph unicode="&#xe947;" d="M893.568 502.811c0 0-5.222 50.39-11.25 89.122-6.024 38.726-30.164 103.344-65.45 163.586l6.93 4.234c0 0 40.45-76.594 52.496-114.464 12.050-37.868 24.16-121.336 24.144-143.722l-6.87 1.244z" />
<glyph unicode="&#xe948;" d="M158.828 761.904l-4.352 3.008c23.524 39.59 83.192 111.882 164.090 154.34 0 0-94.282-54.504-159.738-157.348z" />
<glyph unicode="&#xe949;" d="M817.258 762.182l3.958 2.73c-23.528 39.59-83.196 111.882-164.094 154.34 0 0 88.812-46.204 160.136-157.070z" />
<glyph unicode="&#xe94a;" d="M121.316 508.451h-8.152c0 0-12.046 41.308-6.024 80.036 6.024 38.73 24.958 101.554 60.242 161.796l4.258-2.68c0 0-50.73-84.242-58.476-159.118-6.114-48.302 8.152-80.034 8.152-80.034z" />
<glyph unicode="&#xe94b;" d="M854.372 508.451h8.152c0 0 12.046 41.308 6.024 80.036-6.024 38.73-24.958 101.554-60.242 161.796l-4.254-2.68c0 0 50.726-84.242 58.472-159.118 6.114-48.302-8.152-80.034-8.152-80.034z" />
<glyph unicode="&#xe94c;" d="M237.022 116.074c-4.086-4.348-8.45-7.812-11.976-7.812 0 0-8.606 11.188-23.238 61.964-14.63 50.778-63.684 222.902-63.684 222.902s-8.61 28.398-12.050 51.636c-3.44 23.238-12.91 60.242-12.91 60.242h8.152c0 0 13.968-74.012 24.426-110.16 10.454-36.144 64.672-220.32 75-246.136 10.328-25.82 16.28-32.636 16.28-32.636z" />
<glyph unicode="&#xe94d;" d="M738.665 116.074c4.090-4.348 8.454-7.812 11.976-7.812 0 0 8.61 11.188 23.238 61.964s63.688 222.902 63.688 222.902 8.606 28.398 12.046 51.636 12.91 60.242 12.91 60.242h-8.152c0 0-13.968-74.012-24.422-110.16-10.458-36.144-64.676-220.32-75.004-246.136-10.326-25.82-16.28-32.636-16.28-32.636z" />
<glyph unicode="&#xe94e;" d="M204.846 463.097c-15.524-4.496-24.46-20.722-19.964-36.246l79.958-276.105c4.496-15.524 20.722-24.46 36.246-19.964l-96.24 332.315z" />
<glyph unicode="&#xe94f;" d="M770.84 463.097c15.524-4.496 24.46-20.722 19.968-36.246l-79.958-276.105c-4.496-15.524-20.726-24.46-36.25-19.964l96.24 332.315z" />
<glyph unicode="&#xe950;" d="M184.882 426.851l-13.242-4.278 70.616-250.050 14.99 4.44z" />
<glyph unicode="&#xe951;" d="M790.81 426.851l13.242-4.278-70.622-250.050-14.988 4.44z" />
<glyph unicode="&#xe952;" d="M307.299 878.88c-3.844 2.824-6.066 4.958-6.066 4.958 27.36 21.14 85.238 50.618 186.614 55.496 101.372-4.878 159.25-34.356 186.61-55.496 0 0-1.79-1.718-4.934-4.114 0 0-59.368 39.528-181.676 39.528-122.314 0-180.548-40.372-180.548-40.372z" />
<glyph unicode="&#xe953;" d="M887.146 202.209l-4 1.524 15.872 45.528c0 0-15.542 0.57-4.21 34.402l-11.946 4.16 6.61 28.508 14.128-4.926c0 0 10.016 21.16 28.856 14.59 0 0-10.094 2.278-19.378-19.36-9.282-21.636-18.566-47.3-8.192-53.856l-17.74-50.57z" />
<glyph unicode="&#xe954;" d="M457.595-51.074c0-7.136 6.644-12.926 14.844-12.926h76.086c8.196 0 14.844 5.79 14.844 12.926h-105.774z" />
<glyph unicode="&#xe955;" d="M479.725-17.622h12.11v-46.378h-12.11v46.378z" />
<glyph unicode="&#xe956;" d="M479.725-51.074h12.11v-12.926h-12.11v12.926z" />
<glyph unicode="&#xe957;" d="M1024 176.418c0-14.29-11.58-25.872-25.874-25.872h-972.252c-14.292 0-25.874 11.582-25.874 25.87v653.711c0 14.286 11.582 25.876 25.874 25.876h972.252c14.292 0 25.874-11.59 25.874-25.876v-653.709z" />
<glyph unicode="&#xe958;" d="M628.137 150.546h-232.274c0 0-4.706-77.618-14.114-94.082h260.501c-9.41 16.466-14.114 94.082-14.114 94.082z" />
<glyph unicode="&#xe959;" d="M664.003 49.994c-14.114 1.766-21.754 6.468-21.754 6.468h-260.501c0 0-7.64-4.704-21.754-6.468-14.11-1.766-23.52-2.938-23.52-9.996h351.049c0 7.058-9.408 8.232-23.52 9.996z" />
<glyph unicode="&#xe95a;" d="M998.126 856.002h-972.252c-14.292 0-25.874-11.59-25.874-25.876v-587.069h1023.998v587.069c0.002 14.286-11.58 25.876-25.872 25.876zM981.62 279.827h-939.24v539.397h939.24v-539.397z" />
<glyph unicode="&#xe95b;" d="M42.38 819.224v-539.397h939.24v539.397h-184.076z" />
<glyph unicode="&#xe95c;" d="M628.137 150.546h-232.274c0 0-0.702-11.546-2.1-26.66h236.474c-1.4 15.114-2.1 26.66-2.1 26.66z" />
<glyph unicode="&#xe95d;" d="M528.957 194.627c0-9.292-7.532-16.824-16.824-16.824s-16.824 7.532-16.824 16.824c0 9.292 7.532 16.824 16.824 16.824s16.824-7.532 16.824-16.824z" />
<glyph unicode="&#xe95e;" d="M663.753 461.511c0-9.308-7.458-16.856-16.656-16.856h-270.193c-9.198 0-16.656 7.546-16.656 16.856v176.032c0 9.308 7.458 16.856 16.656 16.856h270.193c9.2 0 16.656-7.546 16.656-16.856v-176.032z" />
<glyph unicode="&#xe95f;" d="M367.485 447.607c-1.672 1.164-3.124 2.624-4.28 4.312l119.646 80.792 3.704-3.7-119.070-81.404z" />
<glyph unicode="&#xe960;" d="M656.617 447.607c1.672 1.164 3.124 2.624 4.282 4.312l-119.648 80.792-3.702-3.7 119.068-81.404z" />
<glyph unicode="&#xe961;" d="M360.991 642.525c2.1 6.876 8.43 11.872 15.912 11.872h270.193c6.898 0 12.816-4.246 15.346-10.292 0.26-0.624 0.484-1.266 0.67-1.922l-107.778-109.468c0 0-23.134-29.454-43.286-29.454-19.174 0-42.77 29.454-42.77 29.454l-108.288 109.81z" />
<glyph unicode="&#xe962;" d="M360.991 642.525c2.1 6.876 8.43 11.872 15.912 11.872h270.193c6.898 0 12.816-4.246 15.346-10.292 0.26-0.624 0.484-1.266 0.67-1.922l-116.106-109.468c0 0-18.508-16.5-34.958-16.5-16.862 0-35.368 16.5-35.368 16.5l-115.69 109.81z" />
<glyph unicode="&#xe963;" d="M998.126 856.002h-178.116l-374.755-612.945h578.743v587.069c0.002 14.286-11.58 25.876-25.872 25.876z" />
<glyph unicode="&#xe964;" d="M1024 448c0-282.77-229.23-512-512-512s-512 229.23-512 512c0 282.77 229.23 512 512 512s512-229.23 512-512z" />
<glyph unicode="&#xe965;" d="M1024 448c0 102.726-30.248 198.382-82.33 278.55 0 0-29.208-42.668-23.72-70.094 5.484-27.43 37.71-29.524 34.4-49.644s-27.082 5.758-56.344-47.266c-29.26-53.028-14.624-126.192 27.428-131.668 42.054-5.472 100.566 20.122 100.566 20.122z" />
<glyph unicode="&#xe966;" d="M646.46 942.16c59.594-16.176 114.868-42.848 163.714-77.902 0 0-59.368 9.792-81.858-10.316-22.488-20.114-55.286-67.664-81.858 0-26.568 67.66 0.002 88.218 0.002 88.218z" />
<glyph unicode="&#xe967;" d="M127.038 785.562c93.836 106.93 231.512 174.438 384.962 174.438 0 0-34.736-21.032 31.092-56.688 65.83-35.66 35.656-52.114 21.942-63.086-13.712-10.972-37.498 21.942-53.034 43.882-15.538 21.946-82.264 55.77-133.468 37.48-51.202-18.29-95.078-31.8-87.77-48.816 7.306-17.012 95.078 15.89 127.992 14.070 32.914-1.824 21.942-21.934-9.138-45.708-31.084-23.774-34.748-53.028-1.832-71.312 32.912-18.292 73.132-20.122 82.286-9.152 9.148 10.972-16.458 82.286 45.716 51.204s113.376-49.382 62.174-95.090c-51.204-45.704-109.714-96.922-111.546-126.168-1.832-29.25 18.292-53.040 7.32-54.86s-21.042 11.882-28.352 21.946c-7.306 10.058-41.142 13.71-57.598 7.316-16.458-6.394-47.548-31.082-30.172-54.856 17.378-23.778 41.13-12.792 64.908-23.766 23.774-10.972 45.944-52.73 41.392-62.168-4.552-9.434-24.818 2.512-41.392 34.738-16.578 32.23-47.67 10.972-69.546 16.458-21.878 5.484-38.336 9.14-60.28 47.542-21.944 38.398-67.374 49.144-85.938 71.312-53.178 63.5-49.374 111.542-60.344 133.484-10.972 21.948-39.374 57.8-39.374 57.8z" />
<glyph unicode="&#xe968;" d="M561.37 440.684c0 0 54.858-5.476 82.286-29.254 27.428-23.774 31.092-32.922 73.146-42.062 42.054-9.136 60.344-32.902 32.914-78.622-27.428-45.714-76.808-118.86-100.574-140.804-23.764-21.946-53.024-40.23-63.996-76.8-10.97-36.566-14.634-58.496 9.14-73.136 0 0-12.792-31.090-42.052 9.14-29.262 40.234-5.488 87.77 0 115.2 5.484 27.426 20.11 109.704 10.968 129.828-9.136 20.118-51.202 32.922-62.174 74.972-10.972 42.052 8.23 123.888 60.342 111.538z" />
<glyph unicode="&#xe969;" d="M149.96 810.034c199.95 199.954 524.124 199.95 724.076 0 199.952-199.946 199.952-524.124 0.002-724.074 0 0 232.296 307.18-96.586 636.062-328.884 328.884-627.492 88.012-627.492 88.012z" />
<glyph unicode="&#xe96a;" d="M218.3 560.606c0-6.070-1.822-10.992-4.070-10.992h-128.374c-2.25 0-4.074 4.922-4.074 10.992v0c0 6.072 1.824 10.994 4.074 10.994h128.374c2.248 0.002 4.070-4.92 4.070-10.994v0z" />
<glyph unicode="&#xe96b;" d="M218.3 504.304c0-6.070-2.414-10.992-5.394-10.992h-170.124c-2.98 0-5.394 4.922-5.394 10.992v0c0 6.070 2.414 10.994 5.394 10.994h170.124c2.98 0.002 5.394-4.924 5.394-10.994v0z" />
<glyph unicode="&#xe96c;" d="M218.3 335.402c0 6.072-1.822 10.996-4.070 10.996h-128.374c-2.25 0-4.074-4.924-4.074-10.996v0c0-6.066 1.824-10.99 4.074-10.99h128.374c2.248 0 4.070 4.924 4.070 10.99v0z" />
<glyph unicode="&#xe96d;" d="M218.3 391.706c0 6.070-2.414 10.994-5.394 10.994h-170.124c-2.98 0-5.394-4.924-5.394-10.994v0c0-6.066 2.414-10.992 5.394-10.992h170.124c2.98-0.004 5.394 4.924 5.394 10.992v0z" />
<glyph unicode="&#xe96e;" d="M218.3 448.006c0-6.070-2.916-10.996-6.508-10.996h-205.282c-3.594 0-6.51 4.926-6.51 10.996v0c0 6.070 2.916 10.992 6.51 10.992h205.282c3.592 0 6.508-4.922 6.508-10.992v0z" />
<glyph unicode="&#xe96f;" d="M1024 222.388c0-24.3-19.7-44-44-44h-684.554c-24.3 0-44 19.7-44 44v451.232c0 24.3 19.7 44 44 44h684.554c24.3 0 44-19.7 44-44v-451.232z" />
<glyph unicode="&#xe970;" d="M960.494 328.18c0-4.896-5.422-8.868-12.112-8.868h-237.994c-6.69 0-12.112 3.97-12.112 8.868v0.336c0 4.892 5.422 8.862 12.112 8.862h237.994c6.69 0 12.112-3.968 12.112-8.862v-0.336z" />
<glyph unicode="&#xe971;" d="M960.494 294.156c0-4.9-5.422-8.868-12.112-8.868h-237.994c-6.69 0-12.112 3.966-12.112 8.868v0.33c0 4.898 5.422 8.868 12.112 8.868h237.994c6.69 0 12.112-3.968 12.112-8.868v-0.33z" />
<glyph unicode="&#xe972;" d="M960.494 260.124c0-4.894-5.422-8.862-12.112-8.862h-237.994c-6.69 0-12.112 3.966-12.112 8.862v0.334c0 4.9 5.422 8.87 12.112 8.87h237.994c6.69 0 12.112-3.968 12.112-8.87v-0.334z" />
<glyph unicode="&#xe973;" d="M438.886 717.62l-29.444-26h46.742l29.44 26z" />
<glyph unicode="&#xe974;" d="M392.148 717.62l-29.44-26h46.734l29.444 26z" />
<glyph unicode="&#xe975;" d="M485.624 717.62l-29.44-26h46.736l29.442 26z" />
<glyph unicode="&#xe976;" d="M579.1 717.62l-29.44-26h46.736l29.44 26z" />
<glyph unicode="&#xe977;" d="M251.446 717.62v-26h17.786l29.44 26z" />
<glyph unicode="&#xe978;" d="M298.672 717.62l-29.44-26h46.738l29.44 26z" />
<glyph unicode="&#xe979;" d="M859.526 717.62l-29.44-26h46.742l29.434 26z" />
<glyph unicode="&#xe97a;" d="M953.002 717.62l-29.44-26h46.738l29.442 26z" />
<glyph unicode="&#xe97b;" d="M625.836 717.62l-29.44-26h46.738l29.442 26z" />
<glyph unicode="&#xe97c;" d="M999.742 717.62l-29.442-26h53.7v26z" />
<glyph unicode="&#xe97d;" d="M812.788 717.62l-29.44-26h46.738l29.44 26z" />
<glyph unicode="&#xe97e;" d="M672.576 717.62l-29.442-26h46.74l29.442 26z" />
<glyph unicode="&#xe97f;" d="M532.362 717.62l-29.442-26h46.74l29.44 26z" />
<glyph unicode="&#xe980;" d="M345.41 717.62l-29.44-26h46.738l29.44 26z" />
<glyph unicode="&#xe981;" d="M906.262 717.62l-29.434-26h46.734l29.44 26z" />
<glyph unicode="&#xe982;" d="M719.316 717.62l-29.442-26h46.736l29.44 26z" />
<glyph unicode="&#xe983;" d="M766.050 717.62l-29.44-26h46.738l29.44 26z" />
<glyph unicode="&#xe984;" d="M277.446 272l-26-22.424v35.598l26 22.422z" />
<glyph unicode="&#xe985;" d="M277.446 236.404l-26-22.422v35.594l26 22.424z" />
<glyph unicode="&#xe986;" d="M277.446 307.596l-26-22.422v35.594l26 22.422z" />
<glyph unicode="&#xe987;" d="M277.446 378.786l-26-22.422v35.594l26 22.422z" />
<glyph unicode="&#xe988;" d="M277.446 592.36l-26-22.422v35.596l26 22.422z" />
<glyph unicode="&#xe989;" d="M277.446 663.55l-26-22.422v35.594l26 22.424z" />
<glyph unicode="&#xe98a;" d="M277.446 414.38l-26-22.422v35.596l26 22.422z" />
<glyph unicode="&#xe98b;" d="M277.446 699.146l-26-22.424v40.898h26z" />
<glyph unicode="&#xe98c;" d="M277.446 556.76l-26-22.418v35.596l26 22.422z" />
<glyph unicode="&#xe98d;" d="M277.446 449.976l-26-22.422v35.592l26 22.426z" />
<glyph unicode="&#xe98e;" d="M277.446 343.19l-26-22.422v35.596l26 22.422z" />
<glyph unicode="&#xe98f;" d="M277.446 178.382l-26-0.002v35.602l26 22.422z" />
<glyph unicode="&#xe990;" d="M277.446 627.956l-26-22.422v35.594l26 22.422z" />
<glyph unicode="&#xe991;" d="M277.446 485.572l-26-22.426v35.602l26 22.418z" />
<glyph unicode="&#xe992;" d="M277.446 521.166l-26-22.418v35.594l26 22.418z" />
<glyph unicode="&#xe993;" d="M445.158 178.388l-29.128 26h46.24l29.126-26z" />
<glyph unicode="&#xe994;" d="M398.92 178.388l-29.124 26h46.234l29.128-26z" />
<glyph unicode="&#xe995;" d="M491.396 178.388l-29.126 26h46.236l29.126-26z" />
<glyph unicode="&#xe996;" d="M583.87 178.388l-29.126 26h46.236l29.124-26z" />
<glyph unicode="&#xe997;" d="M251.446 178.388v26h25.876l29.126-26z" />
<glyph unicode="&#xe998;" d="M861.29 178.388l-29.126 26h46.242l29.118-26z" />
<glyph unicode="&#xe999;" d="M953.764 178.388l-29.126 26h46.238l29.124-26z" />
<glyph unicode="&#xe99a;" d="M630.104 178.388l-29.124 26h46.236l29.126-26z" />
<glyph unicode="&#xe99b;" d="M1000 178.388l-29.124 26h53.124v-26z" />
<glyph unicode="&#xe99c;" d="M815.052 178.388l-29.124 26h46.236l29.126-26z" />
<glyph unicode="&#xe99d;" d="M676.342 178.388l-29.126 26h46.24l29.124-26z" />
<glyph unicode="&#xe99e;" d="M537.632 178.388l-29.126 26h46.238l29.126-26z" />
<glyph unicode="&#xe99f;" d="M352.684 178.388l-29.124 26h46.236l29.124-26z" />
<glyph unicode="&#xe9a0;" d="M907.524 178.388l-29.118 26h46.232l29.126-26z" />
<glyph unicode="&#xe9a1;" d="M722.58 178.388l-29.124 26h46.234l29.126-26z" />
<glyph unicode="&#xe9a2;" d="M768.816 178.388l-29.126 26h46.238l29.124-26z" />
<glyph unicode="&#xe9a3;" d="M998 273.76l26-21.682v34.42l-26 21.676z" />
<glyph unicode="&#xe9a4;" d="M998 239.346l26-21.682v34.414l-26 21.682z" />
<glyph unicode="&#xe9a5;" d="M998 308.174l26-21.676v34.414l-26 21.68z" />
<glyph unicode="&#xe9a6;" d="M998 377.010l26-21.682v34.416l-26 21.68z" />
<glyph unicode="&#xe9a7;" d="M998 583.508l26-21.68v34.414l-26 21.68z" />
<glyph unicode="&#xe9a8;" d="M998 652.342l26-21.68v34.414l-26 21.682z" />
<glyph unicode="&#xe9a9;" d="M998 411.424l26-21.68v34.422l-26 21.676z" />
<glyph unicode="&#xe9aa;" d="M998 686.758l26-21.682v39.544h-26z" />
<glyph unicode="&#xe9ab;" d="M998 549.086l26-21.674v34.416l-26 21.68z" />
<glyph unicode="&#xe9ac;" d="M998 445.842l26-21.676v34.41l-26 21.682z" />
<glyph unicode="&#xe9ad;" d="M998 342.592l26-21.68v34.416l-26 21.682z" />
<glyph unicode="&#xe9ae;" d="M998 183.244l26-0.002v34.422l-26 21.682z" />
<glyph unicode="&#xe9af;" d="M998 617.922l26-21.68v34.42l-26 21.68z" />
<glyph unicode="&#xe9b0;" d="M998 480.258l26-21.682v34.418l-26 21.676z" />
<glyph unicode="&#xe9b1;" d="M998 514.67l26-21.676v34.418l-26 21.674z" />
<glyph unicode="&#xe9b2;" d="M949.16 521.904c0-12.544-10.2-22.714-22.782-22.714h-80.68c-12.582 0-22.782 10.17-22.782 22.714v99.394c0 12.544 10.2 22.714 22.782 22.714h80.68c12.582 0 22.782-10.17 22.782-22.714v-99.394z" />
<glyph unicode="&#xe9b3;" d="M272.092 148.684l-172.118-54.642 3.724-12.222 172.116 54.648z" />
<glyph unicode="&#xe9b4;" d="M279.792 123.414l-172.094-54.73 4.1-13.47 172.122 54.65z" />
<glyph unicode="&#xe9b5;" d="M263.81 175.874l-172.112-54.644 4.432-14.562 172.114 54.648z" />
<glyph unicode="&#xe9b6;" d="M213.302 215.292l-102.446-29.996c-11.496-3.364-20.136-11.622-23.258-20.976l153.816 47.066c-7.146 5.216-17.568 6.988-28.112 3.906z" />
<glyph unicode="&#xe9b7;" d="M250.674 199.902l-162.964-51.742c-1.352-4.378-1.484-8.96-0.14-13.382l0.3-0.976 172.046 54.632c-1.714 4.742-4.96 8.644-9.242 11.468z" />
<glyph unicode="&#xe9b8;" d="M155.776-60.75c7.52-3.602 17.188-4.39 26.832-1.454l108.59 33.066c10.718 3.266 18.902 10.372 22.758 18.61l-158.18-50.222z" />
<glyph unicode="&#xe9b9;" d="M287.862 96.91l-172.118-54.648 4.184-13.742 172.116 54.648z" />
<glyph unicode="&#xe9ba;" d="M303.94 44.106l-172.118-54.65 4-13.136 172.122 54.652z" />
<glyph unicode="&#xe9bb;" d="M315.462 6.286l-3.372 11.058-172.118-54.648 2.742-9.012c0.324-1.066 0.75-2.078 1.218-3.062l171.79 54.546c-0.088 0.368-0.15 0.746-0.26 1.118z" />
<glyph unicode="&#xe9bc;" d="M295.85 70.684l-172.122-54.648 4.004-13.146 172.122 54.65z" />
<glyph unicode="&#xe9bd;" d="M471.37 277.792l97.582-143.984c0 0-19.816-41.296-71.43-63.078-51.618-21.786-81.82-27.628-102.668-29.708-20.844-2.082-39.73-0.786-49.906-5.164-10.184-4.372-34.238-13.32-34.238-13.32l-47.18 153.648c0 0 18.71 7.524 37.532 45.856 18.82 38.324 29.442 50.71 29.442 50.71s49.25 20.664 80.382 27.84c31.128 7.172 42.848 12.058 48.77 2.386 5.92-9.666 11.714-25.186 11.714-25.186z" />
<glyph unicode="&#xe9be;" d="M310.006 21.114l-0.336 1.106-47.476 154.602 0.926 0.376c0.184 0.074 18.598 7.926 36.964 45.328 18.668 38.016 29.152 50.426 29.59 50.938l0.172 0.196 0.234 0.098c0.496 0.21 49.692 20.782 80.558 27.898 4.832 1.118 9.196 2.172 13.14 3.128 13.332 3.234 22.132 5.376 28.124 4.492 3.878-0.566 6.632-2.39 8.68-5.722 5.624-9.192 11.196-23.762 11.762-25.254l97.856-144.394-0.266-0.562c-0.204-0.414-20.594-41.922-71.992-63.614-54.278-22.91-84.766-27.972-102.984-29.792-7.364-0.73-14.628-1.054-21.042-1.34-11.876-0.52-22.128-0.976-28.542-3.73-10.086-4.34-34.042-13.254-34.282-13.348l-1.086-0.406zM264.85 175.602l46.562-151.636c4.8 1.79 24.292 9.114 33.102 12.898 6.782 2.91 17.218 3.378 29.3 3.914 6.7 0.29 13.624 0.594 20.934 1.328 18.074 1.808 48.344 6.832 102.352 29.624 47.39 20.004 68.004 57.042 70.59 62l-97.338 143.678c-0.058 0.152-5.828 15.532-11.624 25-1.7 2.782-3.898 4.234-7.132 4.71-5.578 0.812-14.218-1.282-27.296-4.454-3.954-0.96-8.324-2.020-13.172-3.136-29.558-6.812-76.132-26.090-79.954-27.68-1.394-1.714-11.844-15.082-29.128-50.292-16.68-33.95-33.158-43.924-37.196-45.954z" />
<glyph unicode="&#xe9bf;" d="M160.108 488.354l-41.278-10.51c0 0-12.656-41.196 13.196-68.156l39.176 7.5-11.094 71.166z" />
<glyph unicode="&#xe9c0;" d="M566.498 82.468l-121.738-44.030 8.706-27.192 123.228 46.992z" />
<glyph unicode="&#xe9c1;" d="M335.12 636.198c0 0-198.372 4.234-179.376-169.912 18.988-174.146 228.48-120.404 228.48-120.404l-49.104 290.316z" />
<glyph unicode="&#xe9c2;" d="M370.366 428.956l13.86-83.074c0 0 88.434 31.754 152.868 24.792 64.438-6.96 152.734-29.832 384.274-182.972l-19.648 109.296-138.954 77.946c0 0-120.906 62.238-204.964 73.316s-187.436-19.304-187.436-19.304z" />
<glyph unicode="&#xe9c3;" d="M182.4 575.398c-20.004-24.85-32.032-59.84-26.656-109.112 18.988-174.146 228.48-120.404 228.48-120.404l-13.86 83.074c0 0-36.64-7.8-92.758 9.738-88.394 27.628-95.206 136.704-95.206 136.704z" />
<glyph unicode="&#xe9c4;" d="M338.604 614.64l-3.484 21.558c0 0 87.868-7.906 184.996 47.4 97.12 55.302 262.76 274.412 262.76 274.412l6.094-33.908c0 0-101.11-122.588-126.84-154.38-28.664-35.416-80.238-89.482-148.372-121.318-26.384-12.33-93.31-33.008-175.154-33.764z" />
<glyph unicode="&#xe9c5;" d="M903.206 582.218c36.954-213.23 45.218-389.834 18.468-394.464-26.742-4.64-78.364 164.46-115.316 377.684-36.938 213.224-45.208 389.834-18.47 394.468 26.75 4.636 78.368-164.464 115.318-377.688z" />
<glyph unicode="&#xe9c6;" d="M933.236 354.3c7.972-98.32 4.578-163.754-11.562-166.546-26.742-4.64-78.364 164.46-115.316 377.684-36.938 213.224-45.208 389.834-18.47 394.468 10.91 1.89 25.96-25.118 42.46-72.228 0 0-18.364 35.024-32.808 29.692-14.438-5.336 14.804-280.322 31.394-353.534 16.59-73.208 59.976-319.646 83.57-326.876 23.592-7.222 20.732 117.34 20.732 117.34z" />
<glyph unicode="&#xe9c7;" d="M848.708 467.914c0 0 88.050 26.73 70.808 112.452-17.238 85.724-105.746 78.15-105.746 78.15s13.354-94.198 34.938-190.602z" />
<glyph unicode="&#xe9c8;" d="M338.756 614.674l-3.636 21.524c0 0-116.152 2.48-162.188-74.38 0 0 42.934 64.314 165.824 52.856z" />
<glyph unicode="&#xe9c9;" d="M875.658 480.896c-14.566-9.22-26.95-12.978-26.95-12.982-21.586 96.404-34.938 190.602-34.938 190.602s3.922 0.336 10.27 0.066c0 0 10.73-100.136 24.308-135.14 13.58-35.008 27.31-42.546 27.31-42.546z" />
<glyph unicode="&#xe9ca;" d="M541.94 119.704c2.184-4.468 17.152-36.536 19.434-40.934l-110.282-39.45c0 0-55.586 112.48-91.438 263.364l30.926 5.742c0 0 40.976-150.91 64.906-192.93 14.59-25.618 47.718-4.79 47.718-4.79l38.736 8.998z" />
<glyph unicode="&#xe9cb;" d="M548.662 105.512c0 0-25.628-4.68-46.906-12.204-21.274-7.52-48.614-15.7-62.602 5.872 0 0-8.008 12.918-3.406 21.778 0 0-13.278 4.508-17.91 15.46-4.628 10.954-4.708 17.934 2.356 26.062 0 0-8.864 4.602-12.43 12.832-3.562 8.222 1.094 17.446 5.528 22.668 0 0-12.418 2.918-15.258 11.040-2.848 8.118-2.262 14.632 1.708 19.192 0 0-15.468-0.292-21.442 6.446l32.528 6.602 132.852-124.746 4.982-11.002z" />
<glyph unicode="&#xe9cc;" d="M555.358 90.704l-109.41-40.496c3.274-7.106 5.144-10.886 5.144-10.886l110.282 39.45c-2.044 3.946-4.048 7.928-6.016 11.932z" />
<glyph unicode="&#xe9cd;" d="M483.358 343.782l4.51-17.802-141.254-28.024-2.822 19.912z" />
<glyph unicode="&#xe9ce;" d="M566.694 151.542c0 0-3.218 17.926-19.864 14.508-18.282-3.754-62.278-18.586-84.386-29.286-19.406-9.39-22.676-14.46-20.324-28.566 2.352-14.11 18.36-17.45 24.89-15.386 6.558 2.062 4.536 0.032 89.136 28.086 0 0 15.632 6.836 13.262 17.946-2.374 11.106-2.714 12.698-2.714 12.698z" />
<glyph unicode="&#xe9cf;" d="M459.448 91.418v0c-7.746 1.136-16.652 6.090-18.406 16.598-2.454 14.754 1.458 20.304 20.93 29.73 22.164 10.726 66.472 25.64 84.64 29.372 2.39 0.492 4.66 0.586 6.75 0.278 11.77-1.718 14.3-15.094 14.402-15.66l2.71-12.668c2.532-11.836-13.222-18.868-13.894-19.16-68.070-22.586-79.976-25.66-85.696-27.144-1.332-0.348-2.278-0.59-3.55-0.992-2.11-0.662-4.906-0.792-7.886-0.354zM553.044 165.238c-1.836 0.27-3.852 0.184-5.996-0.25-18.046-3.71-62.090-18.54-84.132-29.204-19.68-9.524-21.89-14.398-19.726-27.414 1.562-9.348 9.586-13.778 16.578-14.8 2.618-0.386 5.14-0.282 6.914 0.278 1.308 0.414 2.282 0.668 3.656 1.020 5.7 1.472 17.554 4.55 85.464 27.066 0.054 0.032 14.7 6.574 12.542 16.684l-2.718 12.696c-0.026 0.158-2.374 12.432-12.582 13.924z" />
<glyph unicode="&#xe9d0;" d="M558.010 192.43c0 0-2.946 16.136-19.86 14.512-16.918-1.622-72.192-21.816-90.77-32.75-18.574-10.95-29.454-15.676-27.106-29.782 2.356-14.098 18.45-17.476 24.98-15.414 6.528 2.054 102.208 32.796 102.208 32.796s15.632 6.828 13.262 17.942c-2.374 11.11-2.714 12.696-2.714 12.696z" />
<glyph unicode="&#xe9d1;" d="M437.702 127.61v0c-7.792 1.14-16.742 6.106-18.496 16.622-2.254 13.542 7.124 18.98 22.664 28.004 1.582 0.918 3.242 1.878 4.964 2.89 19.226 11.328 74.636 31.316 91.21 32.898 1.96 0.188 3.836 0.152 5.586-0.102 12.856-1.882 15.43-15.16 15.454-15.296l2.708-12.664c2.532-11.844-13.218-18.872-13.886-19.168-1.062-0.348-95.864-30.8-102.32-32.836-2.104-0.666-4.904-0.786-7.884-0.348zM543.314 205.766c-1.574 0.23-3.278 0.262-5.058 0.090-16.386-1.566-71.254-21.378-90.32-32.61-1.722-1.012-3.382-1.972-4.972-2.902-15.23-8.832-23.618-13.696-21.61-25.754 1.562-9.364 9.628-13.796 16.66-14.832v0c2.624-0.382 5.144-0.286 6.914 0.274 6.454 2.036 101.25 32.488 102.204 32.796 0.042 0.028 14.688 6.574 12.532 16.676l-2.718 12.696c-0.096 0.514-2.342 11.914-13.632 13.566z" />
<glyph unicode="&#xe9d2;" d="M545.224 233.148c0 0-3.136 16.106-20.032 14.286-16.89-1.82-60.648-20.816-79.094-31.968-18.45-11.156-36.394-21.074-33.882-35.148 2.516-14.078 14.484-14.040 20.992-11.902 6.508 2.132 101.824 33.972 101.824 33.972s15.554 7.012 13.050 18.098c-2.498 11.080-2.858 12.662-2.858 12.662z" />
<glyph unicode="&#xe9d3;" d="M423.986 166.484v0c-4.876 0.71-11.058 3.66-12.844 13.636-2.508 14.058 13.98 23.984 31.43 34.484l2.96 1.79c18.286 11.054 62.114 30.242 79.546 32.118 2.040 0.218 3.992 0.196 5.812-0.070 12.684-1.86 15.376-14.954 15.402-15.082l2.856-12.632c2.664-11.816-13-19.028-13.672-19.328-1.054-0.356-95.492-31.91-101.926-34.020-1.806-0.59-5.454-1.502-9.564-0.896zM530.58 246.29c-1.64 0.238-3.41 0.258-5.266 0.058-16.872-1.812-60.954-21.114-78.652-31.82l-2.968-1.786c-16.79-10.106-32.652-19.656-30.402-32.238 1.554-8.704 6.844-11.258 11.012-11.868v0c2.68-0.394 5.804-0.098 8.574 0.812 6.422 2.11 100.86 33.656 101.812 33.972 0.042 0.028 14.61 6.742 12.336 16.82l-2.868 12.668c-0.098 0.506-2.446 11.748-13.578 13.382z" />
<glyph unicode="&#xe9d4;" d="M260.37 187.196l54.948-178.904-45.886-17.12-56.938 182.222z" />
<glyph unicode="&#xe9d5;" d="M529.998 279.836c0 0-4.668 15.726-21.308 12.292-16.644-3.43-60.042-24.214-77.336-37.086-17.292-12.878-32.54-26.786-28.684-40.554 3.852-13.77 15.766-12.586 22.036-9.832 6.27 2.75 98.098 43.586 98.098 43.586s14.812 8.468 11.254 19.258c-3.552 10.796-4.060 12.336-4.060 12.336z" />
<glyph unicode="&#xe9d6;" d="M414.092 202.004v0c-4.308 0.632-9.972 3.258-12.472 12.196-4.082 14.594 11.566 28.672 29.086 41.71 17.34 12.914 60.95 33.82 77.766 37.29 2.68 0.55 5.238 0.656 7.602 0.304 11.372-1.66 14.824-12.878 14.968-13.356l4.050-12.304c3.79-11.504-11.114-20.184-11.754-20.542-1.016-0.464-91.996-40.926-98.196-43.644-1.676-0.74-6.124-2.376-11.050-1.654zM515.756 291.356c-2.11 0.308-4.414 0.208-6.848-0.292-16.61-3.422-59.73-24.114-76.902-36.894-16.090-11.976-32.028-26.016-28.29-39.382 1.75-6.266 5.348-9.84 10.692-10.622v0c4.368-0.644 8.352 0.828 9.86 1.488 6.196 2.718 97.172 43.176 98.086 43.586 0.046 0.032 13.902 8.11 10.672 17.926l-4.062 12.336c-0.142 0.448-3.232 10.388-13.208 11.854z" />
<glyph unicode="&#xe9d7;" d="M270.096 180.328l-6.566-4.14c0 0 2.496 1.008 6.566 4.14z" />
<glyph unicode="&#xe9d8;" d="M490.67 241.766c-8.656 12.27-18.434 34.746-18.434 34.746s-6.66 16.8-12.582 26.468c-5.922 9.672-17.64 4.786-48.77-2.386-31.132-7.176-80.382-27.84-80.382-27.84s-10.622-12.386-29.442-50.71c-11.96-24.356-23.864-36.262-30.964-41.714l93.062 58.66c53.058-17.128 69.254 10.766 69.254 10.766 4.714-16.656 14.21-30.704 26.274-38.52 12.058-7.82 37.77-8.836 44.102-3.16 6.336 5.67-3.462 21.416-12.118 33.69z" />
<glyph unicode="&#xe9d9;" d="M330.502 272.754c0 0 49.25 20.664 80.382 27.84 31.128 7.172 42.848 12.058 48.77 2.386 5.922-9.668 12.582-26.468 12.582-26.468s9.778-22.476 18.434-34.746c8.656-12.274 18.454-28.020 12.118-33.692 0 0 1.574 3.156-1.828 9.98-3.402 6.832-19.872 29.606-24.536 39.090-4.66 9.488-15.93 34.614-18.34 38.82-2.406 4.204-7.398 8.968-12.942 8.68-5.542-0.286-35.984-7.106-44.118-10.040-8.128-2.932-70.522-21.85-70.522-21.85z" />
<glyph unicode="&#xe9da;" d="M263.936 175.176l-0.816 2.020c0.184 0.074 18.598 7.926 36.964 45.328 18.668 38.016 29.152 50.426 29.59 50.938l0.172 0.196 0.234 0.098c0.496 0.21 49.692 20.782 80.558 27.898 4.832 1.118 9.196 2.172 13.144 3.132 21.546 5.226 31.386 7.61 36.8-1.234 5.898-9.64 12.594-26.468 12.664-26.636 0.086-0.192 9.82-22.48 18.312-34.524 9.222-13.078 18.918-28.89 11.958-35.132-7.188-6.434-33.516-4.664-45.43 3.062-11.668 7.566-21.102 20.98-26.098 37.024-4.95-6.054-24.124-23.934-69.172-9.394l0.672 2.078c51.64-16.664 67.824 10 67.976 10.27l1.292 2.226 0.7-2.48c4.664-16.472 14.070-30.278 25.816-37.894 11.628-7.54 36.91-8.532 42.79-3.266 6.41 5.746-7.66 25.696-12.286 32.254-8.622 12.222-18.446 34.714-18.54 34.942-0.082 0.2-6.71 16.86-12.516 26.332-4.586 7.492-13.316 5.378-34.43 0.258-3.954-0.96-8.324-2.020-13.172-3.136-29.558-6.812-76.132-26.090-79.954-27.68-1.394-1.714-11.844-15.082-29.128-50.292-18.788-38.268-37.324-46.072-38.1-46.388z" />
<glyph unicode="&#xe9db;" d="M460.736 176.352c0 0-2.864-24.2 15.532-36.66l-27.786-8.45c0 0-6.71-3.554-14.648-0.464-7.938 3.086-11.292 7.434-12.73 14.52s4.262 13.128 4.262 13.128 9.078 8.438 18.18 12.332c8.998 3.222 17.19 5.594 17.19 5.594z" />
<glyph unicode="&#xe9dc;" d="M476.88 138.226c0 0-1.372-22.504 16.808-36.446l-26.168-7.722c0 0-13.278-4.246-21.938 8.036-4.532 7.54-3.098 15.442-1.856 19.254 1.246 3.808 6.406 8.004 9.020 8.996 2.628 0.992 24.134 7.882 24.134 7.882z" />
<glyph unicode="&#xe9dd;" d="M448.064 213.796c0 0-2.308-20.758 12.882-34.722l-25.872-8.868c0 0-12.52-5.32-19.316 3.382-6.792 8.7 0.040 17.786 1.376 19.426 2.122 3.172 13.11 11.836 17.946 14.792 4.836 2.964 12.984 5.99 12.984 5.99z" />
<glyph unicode="&#xe9de;" d="M431.99 247.344c0 0 3.406-14.816 18.036-30.168l-25.14-11.36c0 0-14.91-6.618-19.742 5.464-4.832 12.078 1.040 18.372 4.652 22.976-0.002 0.002 13.002 2.154 22.194 13.088z" />
<glyph unicode="&#xe9df;" d="M378.298 234.656c0 0 19.746-75.528 66.378-182.872l-23.168-5.41c0.002 0-25.674 125.188-43.21 188.282z" />
<glyph unicode="&#xe9e0;" d="M264.85 175.602l46.562-151.636 16.418 6.422c0 0-40.808 88.89-58.574 147.89-1.238-0.918-1.856-1.38-4.406-2.676z" />
<glyph unicode="&#xe9e1;" d="M0 902.176l662.338-838.966 58.876 199.756z" />
<glyph unicode="&#xe9e2;" d="M462.94 491.872l-45.466-118.498 244.864-310.164 58.876 199.756z" />
<glyph unicode="&#xe9e3;" d="M662.338 63.21l-60.976 149.292-601.362 689.674 534.078-733.83z" />
<glyph unicode="&#xe9e4;" d="M601.362 212.502l-344.838-218.676-256.524 908.35z" />
<glyph unicode="&#xe9e5;" d="M721.214 262.966l-721.214 639.21 1024-506.742z" />
<glyph unicode="&#xe9e6;" d="M365.292 483.236l-117.786-457.484 9.018-31.926 345.166 218.938z" />
<glyph unicode="&#xe9e7;" d="M981.854 416.288l-518.914 75.584 258.024-229.752 303.036 133.314z" />
<glyph unicode="&#xe9e8;" d="M365.292 483.236l-117.786-457.484 135.096 437.678z" />
<glyph unicode="&#xe9e9;" d="M462.94 491.872l23.012-20.492 495.902-55.092z" />
<glyph unicode="&#xe9ea;" d="M601.69 212.764l-68.374-43.372 52.326-43.312z" />
<glyph unicode="&#xe9eb;" d="M25.428 812.132l20.584 37.276-46.012 52.768z" />
<glyph unicode="&#xe9ec;" d="M55.82 852.704l46.462-1.144-102.282 50.616z" />
<glyph unicode="&#xe9ed;" d="M195.046 96.632c41.218-15.274 669.018 607.356 669.018 607.356s27.324 73.726-31.778 95.632c-45.972 17.036-326.092 120.856-326.092 120.856-53.644 19.878-86.648-6.458-97.062-34.566-10.418-28.106-253.64-684.352-266.656-719.48-13.020-35.13 11.354-54.524 52.57-69.798z" />
<glyph unicode="&#xe9ee;" d="M605.602 6.62c-11.184-30.176-44.714-45.574-74.894-34.39l-338.276 125.372c-30.18 11.184-45.578 44.718-34.39 74.894l258.458 697.368c11.184 30.18 44.718 45.578 74.898 34.39l338.272-125.372c30.18-11.184 45.578-44.714 34.394-74.894l-258.462-697.368z" />
<glyph unicode="&#xe9ef;" d="M440.66 847.3l390.321-144.648-231.438-624.518-390.321 144.648 231.438 624.518z" />
<glyph unicode="&#xe9f0;" d="M710.504 781.616c-1.598-4.316-6.684-6.406-11.356-4.672l-110.024 40.778c-4.672 1.73-7.164 6.628-5.566 10.942v0c1.598 4.312 6.684 6.402 11.356 4.672l110.020-40.778c4.672-1.734 7.164-6.628 5.57-10.942v0z" />
<glyph unicode="&#xe9f1;" d="M704.918 776.652c-1.808-0.488-3.824-0.43-5.77 0.292l-110.024 40.778c-4.672 1.73-7.164 6.628-5.566 10.942v0c1.598 4.312 6.684 6.402 11.356 4.672 0 0-4.54-2.39-4.804-7.098-0.266-4.714 12.624-9.86 18.476-12.032 5.86-2.172 96.332-37.554 96.332-37.554z" />
<glyph unicode="&#xe9f2;" d="M440.73 847.37l-202.512-546.414 578.244 362.47 14.562 39.292z" />
<glyph unicode="&#xe9f3;" d="M418.070 93.364c0-19.38-15.71-35.090-35.090-35.090s-35.090 15.71-35.090 35.090c0 19.38 15.71 35.090 35.090 35.090s35.090-15.71 35.090-35.090z" />
<glyph unicode="&#xe9f4;" d="M412.954 93.364c0-16.554-13.42-29.974-29.974-29.974s-29.974 13.42-29.974 29.974c0 16.554 13.42 29.974 29.974 29.974s29.974-13.42 29.974-29.974z" />
<glyph unicode="&#xe9f5;" d="M404.66 85.332c4.438 11.972-1.668 25.278-13.644 29.714-11.972 4.438-25.278-1.668-29.714-13.644-4.442-11.98 1.672-25.282 13.644-29.718s25.276 1.668 29.714 13.648z" />
<glyph unicode="&#xe9f6;" d="M732.622 821.14l65.992-24.46c0 0 4.824 2.524 3.406 9.196l-65.992 24.46c0 0-5.856-3.064-3.406-9.196z" />
<glyph unicode="&#xe9f7;" d="M802.020 805.874l-65.992 24.46c0 0-4.364-2.282-3.98-6.852l68.328-25.312c1.21 1.404 2.46 3.864 1.644 7.704z" />
<glyph unicode="&#xe9f8;" d="M521.646 904.534c0.941 2.539 8.573 2.051 17.046-1.089s14.58-7.744 13.639-10.282c-0.941-2.539-8.573-2.051-17.046 1.089s-14.58 7.744-13.639 10.282z" />
<glyph unicode="&#xe9f9;" d="M970.314 320.14c-23.458-63.292-73.636-108.876-133.004-128.79l18.136-36.32c68.168 24.566 125.472 77.852 152.624 151.114 27.156 73.262 18.418 151.016-17.282 214.074l-37.422-15.722c32.044-53.798 40.404-121.070 16.948-184.356z" />
<glyph unicode="&#xe9fa;" d="M889.81 349.972c-15.586-42.054-50.852-71.082-91.496-80.554l20.692-41.422c50.52 15.132 93.594 52.958 113.332 106.214 19.738 53.266 11.722 110.020-16.738 154.418l-42.684-17.93c24.652-33.672 32.484-78.668 16.894-120.726z" />
<glyph unicode="&#xe9fb;" d="M53.686 647.976c-23.458-63.29-15.102-130.57 16.95-184.364l-37.426-15.722c-35.696 63.054-44.434 140.816-17.282 214.078s84.454 126.542 152.624 151.11l18.136-36.32c-59.364-19.918-109.544-65.492-133.002-128.782z" />
<glyph unicode="&#xe9fc;" d="M134.19 618.14c-15.59-42.062-7.758-87.058 16.894-120.726l-42.684-17.938c-28.46 44.406-36.476 101.16-16.738 154.426 19.742 53.258 62.812 91.082 113.336 106.208l20.688-41.418c-40.644-9.47-75.91-38.498-91.496-80.552z" />
<glyph unicode="&#xe9fd;" d="M949.158 522.828c0-241.418-195.73-437.144-437.148-437.144s-437.144 195.726-437.144 437.144 195.726 437.148 437.144 437.148 437.148-195.73 437.148-437.148z" />
<glyph unicode="&#xe9fe;" d="M797.276 522.828c0-157.54-127.722-285.262-285.266-285.262-157.54 0-285.262 127.722-285.262 285.262 0 157.542 127.722 285.262 285.262 285.262 157.544 0 285.266-127.72 285.266-285.262z" />
<glyph unicode="&#xe9ff;" d="M781.406 522.828c0-148.774-120.618-269.386-269.394-269.386-148.774 0-269.39 120.614-269.39 269.386s120.618 269.39 269.39 269.39c148.776 0 269.394-120.616 269.394-269.39z" />
<glyph unicode="&#xea00;" d="M708.584 522.828c0-108.554-88.016-196.57-196.574-196.57s-196.57 88.016-196.57 196.57c0 108.558 88.012 196.57 196.57 196.57s196.574-88.012 196.574-196.57z" />
<glyph unicode="&#xea01;" d="M651.662 522.828c0-77.124-62.528-139.652-139.652-139.652-77.122 0-139.648 62.528-139.648 139.652s62.528 139.652 139.648 139.652c77.126 0 139.652-62.528 139.652-139.652z" />
<glyph unicode="&#xea02;" d="M596.932 522.828c0-46.9-38.020-84.92-84.92-84.92s-84.92 38.020-84.92 84.92c0 46.9 38.020 84.92 84.92 84.92s84.92-38.020 84.92-84.92z" />
<glyph unicode="&#xea03;" d="M500.182 548.382c0-16.934-13.734-30.668-30.672-30.668-16.93 0-30.668 13.734-30.668 30.668 0 16.938 13.738 30.672 30.668 30.672 16.938 0 30.672-13.734 30.672-30.672z" />
<glyph unicode="&#xea04;" d="M570.002 478.964c0-10.539-8.543-19.082-19.082-19.082s-19.082 8.543-19.082 19.082c0 10.539 8.543 19.082 19.082 19.082s19.082-8.543 19.082-19.082z" />
<glyph unicode="&#xea05;" d="M541.462 858.858c0-14.478-11.736-26.214-26.214-26.214s-26.214 11.736-26.214 26.214c0 14.478 11.736 26.214 26.214 26.214s26.214-11.736 26.214-26.214z" />
<glyph unicode="&#xea06;" d="M890.026 71.676c-53.684 44.734-92.492 12.132-134.204 2.98-48.864-10.722-110.352-28.336-243.812-29.824-133.458 1.488-194.946 19.102-243.808 29.824-41.71 9.152-80.524 41.754-134.204-2.98-53.684-44.738-68.598-110.352-44.734-131.23 23.86-20.878 107.364 38.77 190.872 35.79 83.5-2.984 198.102-35.79 231.876-35.79 33.778 0 148.376 32.804 231.878 35.79 83.508 2.98 167.012-56.668 190.872-35.79s8.948 86.492-44.736 131.23z" />
<glyph unicode="&#xea07;" d="M427.058 345.516c-66.024 31.692-111.618 99.184-111.618 177.312 0 108.558 88.012 196.57 196.57 196.57 67.848 0 127.672-34.378 163.004-86.668 0 0-76.636 81.356-179.79 63.57s-156.020-109.536-148.094-217.336c7.936-107.796 79.928-133.448 79.928-133.448z" />
<glyph unicode="&#xea08;" d="M74.866 522.828c0-241.418 195.726-437.144 437.144-437.144s437.148 195.726 437.148 437.144c0 0-139.386-315.204-437.148-315.204-297.758 0-437.144 315.204-437.144 315.204z" />
<glyph unicode="&#xea09;" d="M570.56 171.59c0-12.409-26.213-22.468-58.548-22.468s-58.548 10.059-58.548 22.468c0 12.409 26.213 22.468 58.548 22.468s58.548-10.059 58.548-22.468z" />
<glyph unicode="&#xea0a;" d="M197.21-36.844c26.074 7.852 54.496 14.094 82.926 13.078 83.5-2.984 198.102-35.79 231.876-35.79 33.778 0 148.376 32.804 231.878 35.79 29.378 1.050 58.754-5.652 85.536-13.876 0 0-64.7 32.124-120.84 24.196s-138.75-22.422-196.574-22.422c-57.82 0-184.704 23.68-205.852 23.68-63.54 0-108.95-24.656-108.95-24.656z" />
<glyph unicode="&#xea0b;" d="M130.898-58.864c-19.046-5.66-33.664-7.664-41.632-0.692-23.864 20.878-8.95 86.492 44.734 131.23 53.68 44.734 92.492 12.132 134.204 2.98 0 0-67.988 13.012-94.976-8.796s-64.624-69.152-62.672-99.124c1.946-29.972 20.342-25.598 20.342-25.598z" />
<glyph unicode="&#xea0c;" d="M893.128-58.864c19.046-5.66 33.664-7.664 41.632-0.692 23.86 20.878 8.95 86.492-44.734 131.23-53.684 44.734-92.492 12.132-134.204 2.98 0 0 67.984 13.012 94.976-8.796 26.988-21.808 64.624-69.152 62.672-99.124-1.948-29.972-20.342-25.598-20.342-25.598z" />
<glyph unicode="&#xea0d;" d="M254.062 875.754c-194.91-142.45-237.434-415.968-94.976-610.876l705.852 515.902c-142.458 194.908-415.97 237.434-610.876 94.974z" />
<glyph unicode="&#xea0e;" d="M1023.934 439.923c-4.46-282.731-237.278-508.317-520.007-503.859-282.735 4.462-508.321 237.274-503.863 520.005 4.462 282.739 237.278 508.325 520.011 503.865 282.733-4.462 508.319-237.28 503.859-520.011z" />
<glyph unicode="&#xea0f;" d="M387.137 551.999h-150.268v-427.999h1.702c0 0-0.010 0.562-0.010 0.482 0-20.74 33.35-37.19 74.494-37.19 41.146 0 74.496 17.706 74.496 38.444 0 1.338-0.414 426.263-0.414 426.263z" />
<glyph unicode="&#xea10;" d="M387.551 550.337c0-20.743-33.353-37.558-74.496-37.558s-74.496 16.815-74.496 37.558c0 20.743 33.353 37.558 74.496 37.558s74.496-16.815 74.496-37.558z" />
<glyph unicode="&#xea11;" d="M585.793 769.998h-146.924v-645.999h-1.642c0 0-0.014 0.562-0.014 0.482 0-20.74 33.354-37.19 74.498-37.19 41.142 0 74.496 16.452 74.496 37.192 0 1.334-0.414 645.515-0.414 645.515z" />
<glyph unicode="&#xea12;" d="M586.207 770.844c0-20.742-33.354-37.556-74.498-37.556s-74.498 16.814-74.498 37.556c0 20.742 33.354 37.556 74.498 37.556s74.498-16.814 74.498-37.556z" />
<glyph unicode="&#xea13;" d="M784.444 389.999h-147.576v-265.999h-0.986c0 0-0.014 0.562-0.014 0.482 0-20.74 33.354-37.19 74.496-37.19 41.144 0 74.498 16.164 74.498 36.904 0 1.342-0.418 265.803-0.418 265.803z" />
<glyph unicode="&#xea14;" d="M784.864 391.413c0-20.742-33.354-37.556-74.498-37.556s-74.498 16.814-74.498 37.556c0 20.742 33.354 37.556 74.498 37.556s74.498-16.814 74.498-37.556z" />
<glyph unicode="&#xea15;" d="M238.562 551.999h-1.692v-427.999h2c0 0 0 0.998 0 0.918 0-20.706 32-37.264 74-37.318v425.183c-42 0.056-74.308 15.216-74.308 39.216z" />
<glyph unicode="&#xea16;" d="M238.764 547.685c0.056-0.39 0.102-0.792 0.18-1.186 0.058-0.288 0.148-0.57 0.216-0.858 0.084-0.34 0.154-0.684 0.258-1.020 0.090-0.296 0.208-0.59 0.312-0.882 0.112-0.324 0.21-0.646 0.34-0.964 0.124-0.304 0.278-0.606 0.418-0.908 0.136-0.302 0.26-0.608 0.412-0.904 0.168-0.328 0.364-0.648 0.546-0.968 0.154-0.27 0.292-0.542 0.458-0.812 0.21-0.344 0.454-0.684 0.684-1.024 0.164-0.242 0.312-0.48 0.482-0.718 0.264-0.368 0.556-0.722 0.844-1.078 0.164-0.21 0.316-0.422 0.486-0.624 0.31-0.37 0.646-0.73 0.976-1.094 0.174-0.19 0.334-0.382 0.514-0.57 0.364-0.378 0.754-0.752 1.14-1.124 0.17-0.164 0.326-0.33 0.5-0.49 0.41-0.38 0.846-0.754 1.284-1.126 0.174-0.146 0.33-0.3 0.506-0.444 0.476-0.4 0.984-0.788 1.49-1.174 0.15-0.116 0.288-0.232 0.442-0.346 0.536-0.404 1.1-0.796 1.666-1.186 0.136-0.094 0.266-0.196 0.402-0.29 0.622-0.416 1.264-0.822 1.914-1.23 0.1-0.058 0.19-0.122 0.29-0.182 0.678-0.416 1.376-0.82 2.092-1.22 0.082-0.048 0.158-0.098 0.242-0.142 0.746-0.414 1.518-0.82 2.3-1.216 0.052-0.028 0.104-0.056 0.156-0.082 0.834-0.422 1.684-0.832 2.552-1.23 0.008-0.004 0.018-0.704 0.024-0.71 0.882-0.404 1.778-1.878 2.694-1.878h0.004c12.836-4 29.302-7.886 47.26-7.912l-13.85 74.782c-34.42-3.314-60.438-18.386-60.438-36.706 0-0.65 0.034-1.204 0.098-1.842 0.024-0.25 0.074-0.398 0.106-0.642z" />
<glyph unicode="&#xea17;" d="M635.883 124h0.366c-0.004 0.162-0.026 0.32-0.026 0.482 0 0.080-0.34-0.482-0.34-0.482z" />
<glyph unicode="&#xea18;" d="M636.829 390.809l0.040-266.807h-0.62c0.534-20.472 34.934-36.346 74.62-36.4v266.259c-40 0.054-74.040 16.24-74.040 36.948z" />
<glyph unicode="&#xea19;" d="M636.075 389.439c0.052-0.394 0.1-0.794 0.18-1.186 0.056-0.288 0.144-0.572 0.214-0.862 0.086-0.34 0.156-0.68 0.256-1.016 0.090-0.296 0.208-0.59 0.312-0.882 0.114-0.324 0.212-0.646 0.344-0.966 0.124-0.306 0.278-0.608 0.414-0.91 0.138-0.298 0.264-0.604 0.416-0.904 0.166-0.324 0.36-0.644 0.542-0.968 0.154-0.27 0.292-0.544 0.458-0.81 0.212-0.342 0.456-0.682 0.688-1.022 0.162-0.242 0.308-0.484 0.482-0.722 0.264-0.364 0.556-0.718 0.844-1.078 0.162-0.208 0.312-0.418 0.486-0.624 0.31-0.366 0.646-0.728 0.976-1.090 0.174-0.19 0.334-0.382 0.51-0.57 0.364-0.378 0.754-0.752 1.144-1.124 0.17-0.164 0.322-0.33 0.496-0.49 0.412-0.384 0.85-0.756 1.286-1.132 0.17-0.146 0.33-0.296 0.502-0.442 0.48-0.398 0.984-0.786 1.49-1.176 0.15-0.114 0.292-0.232 0.442-0.346 0.54-0.4 1.102-0.794 1.67-1.184 0.134-0.096 0.262-0.194 0.402-0.288 0.618-0.416 1.26-0.826 1.914-1.23 0.096-0.058 0.19-0.12 0.29-0.186 0.678-0.412 1.378-0.818 2.088-1.216 0.082-0.046 0.162-0.098 0.246-0.142 0.746-0.416 1.516-0.82 2.296-1.216 0.056-0.032 0.106-0.056 0.16-0.084 0.83-0.424 1.68-0.834 2.548-1.228 0.010-0.008 0.018-0.012 0.028-0.016 0.878-0.402 1.778-0.796 2.694-1.18v0c12.84-5.356 29.302-8.586 47.264-8.61l-13.85 74.434c-34.422-3.316-60.442-18.562-60.442-36.878 0-0.648 0.034-1.292 0.098-1.93 0.030-0.25 0.080-0.484 0.112-0.726z" />
<glyph unicode="&#xea1a;" d="M437.213 769.998h-0.036l1.692-219.662v-426.337h-1.642c0 0-0.014 0.562-0.014 0.482 0-6.48 3.262-12.272 8.99-17.58 0.018-0.016 0.038 0.12 0.050 0.11 0.56-0.52 1.138-0.954 1.746-1.454 0.014-0.016 0.034 0.010 0.050-0.002 0.606-0.504 1.232-0.976 1.882-1.46 0.052-0.040 0.108-0.066 0.16-0.104 0.62-0.458 1.256-0.91 1.916-1.352 0.078-0.048 0.16-0.096 0.238-0.146 0.638-0.43 1.294-0.85 1.972-1.262 0.106-0.066 0.222-0.128 0.332-0.194 0.654-0.394 1.318-0.786 2.004-1.164 0.14-0.078 0.288-0.148 0.424-0.224 0.67-0.364 1.344-0.726 2.040-1.076 0.178-0.086 0.362-0.172 0.538-0.258 0.674-0.332 1.35-0.664 2.046-0.98 0.212-0.098 0.438-0.19 0.652-0.286 0.674-0.304 1.352-0.604 2.046-0.894 0.238-0.096 0.484-0.186 0.72-0.282 0.69-0.282 1.38-0.562 2.090-0.828 0.278-0.104 0.566-0.2 0.848-0.304 0.682-0.25 1.366-0.502 2.068-0.738 0.308-0.108 0.628-0.2 0.938-0.304 0.69-0.226 1.374-0.454 2.076-0.668 0.358-0.112 0.726-0.21 1.088-0.314 0.672-0.202 1.344-0.4 2.030-0.588 0.386-0.106 0.784-0.204 1.174-0.3 0.672-0.182 1.346-0.362 2.034-0.524 0.42-0.106 0.854-0.2 1.28-0.294 0.668-0.156 1.334-0.314 2.014-0.46 0.454-0.094 0.916-0.18 1.378-0.274 0.664-0.132 1.326-0.27 2-0.398 0.476-0.086 0.966-0.162 1.45-0.246 0.668-0.118 1.33-0.236 2.008-0.34 0.496-0.078 1.002-0.146 1.502-0.214 0.674-0.102 1.344-0.202 2.028-0.292 0.52-0.070 1.050-0.122 1.576-0.184 0.674-0.080 1.34-0.166 2.020-0.236 0.54-0.056 1.092-0.102 1.636-0.15 0.674-0.060 1.348-0.128 2.028-0.18 0.556-0.044 1.122-0.072 1.68-0.112 0.68-0.042 1.358-0.096 2.042-0.128 0.57-0.032 1.154-0.046 1.726-0.066 0.684-0.032 1.364-0.060 2.050-0.080 0.584-0.018 0.856-0.018 1.442-0.024 0.656-0.010 1.644-0.026 1.644-0.026v645.689c-42 0.058-73.656 14.708-73.656 36.708z" />
<glyph unicode="&#xea1b;" d="M437.419 768.872c0.054-0.396 0.1-0.792 0.18-1.188 0.056-0.286 0.144-0.572 0.216-0.86 0.084-0.34 0.154-0.68 0.254-1.016 0.090-0.298 0.208-0.592 0.314-0.886 0.114-0.322 0.214-0.646 0.342-0.966 0.124-0.306 0.278-0.606 0.418-0.91 0.134-0.298 0.26-0.602 0.412-0.902 0.168-0.328 0.364-0.646 0.542-0.97 0.154-0.27 0.294-0.542 0.46-0.812 0.208-0.342 0.454-0.684 0.684-1.024 0.162-0.236 0.308-0.482 0.482-0.718 0.264-0.364 0.556-0.72 0.844-1.080 0.164-0.208 0.314-0.416 0.486-0.624 0.31-0.368 0.646-0.73 0.976-1.090 0.174-0.192 0.334-0.384 0.514-0.57 0.36-0.38 0.754-0.754 1.14-1.126 0.17-0.164 0.326-0.33 0.5-0.49 0.41-0.382 0.846-0.756 1.284-1.13 0.17-0.148 0.33-0.296 0.506-0.444 0.476-0.396 0.984-0.786 1.49-1.172 0.15-0.114 0.288-0.234 0.44-0.348 0.536-0.402 1.102-0.792 1.668-1.184 0.136-0.096 0.264-0.192 0.402-0.286 0.622-0.418 1.26-0.828 1.914-1.23 0.096-0.060 0.19-0.124 0.29-0.188 0.678-0.412 1.376-0.82 2.090-1.22 0.084-0.046 0.16-0.094 0.244-0.14 0.746-0.416 1.516-0.82 2.3-1.218 0.052-0.028 0.102-0.056 0.156-0.084 0.83-0.42 1.684-0.83 2.548-1.23 0.010-0.004 0.018-0.006 0.028-0.010 0.88-0.404 1.778-0.796 2.694-1.18v0c12.84-5.356 29.302-8.588 47.264-8.608l-13.848 74.432c-34.42-3.316-60.442-18.562-60.442-36.88 0-0.646 0.036-1.29 0.102-1.932 0.024-0.24 0.074-0.476 0.106-0.716z" />
<glyph unicode="&#xea1c;" d="M1024 448c0-282.77-229.23-512-512-512s-512 229.23-512 512c0 282.77 229.23 512 512 512s512-229.23 512-512z" />
<glyph unicode="&#xea1d;" d="M793.39 156.156l-4.474 549.23c-0.106 13.132-8.554 23.812-21.686 23.706l-509.108-4.15 532.354-580.372c1.886 3.45 2.95 7.396 2.914 11.586z" />
<glyph unicode="&#xea1e;" d="M258.122 724.942l-3.508-0.026c-13.134-0.108-23.792-10.94-23.684-24.076l4.474-549.23c0.106-13.132 10.94-23.794 24.076-23.686l510.228 4.156c8.95 0.072 16.742 5.128 20.77 12.49l-532.356 580.372z" />
<glyph unicode="&#xea1f;" d="M793.076 195.16c0.106-13.136-10.554-23.968-23.686-24.076l-510.23-4.158c-13.134-0.106-23.966 10.554-24.074 23.688l-4.476 549.23c-0.108 13.136 10.55 23.968 23.686 24.076l512.616 4.178c13.132 0.106 21.58-10.574 21.686-23.708l4.478-549.23z" />
<glyph unicode="&#xea20;" d="M233.642 751.632c-1.958-3.496-3.066-7.52-3.030-11.79l4.476-549.23c0.106-13.132 10.94-23.792 24.074-23.688l507.022 4.13-532.542 580.578z" />
<glyph unicode="&#xea21;" d="M299.094 541.394c-17.554-0.144-31.954 14.024-32.098 31.578l-1.006 123.378c-0.142 17.556 14.024 31.956 31.58 32.1l424.262 3.458c17.556 0.144 31.956-14.024 32.1-31.58l1.002-123.38c0.148-17.55-14.022-31.954-31.578-32.096l-424.262-3.458z" />
<glyph unicode="&#xea22;" d="M746.976 576.882c0.108-13.132-10.55-23.964-23.682-24.074l-424.262-3.454c-13.134-0.108-23.966 10.548-24.074 23.682l-1.006 123.382c-0.106 13.134 10.552 23.966 23.686 24.074l424.26 3.456c13.132 0.108 23.97-10.55 24.076-23.686l1.002-123.38z" />
<glyph unicode="&#xea23;" d="M298.9 565.272c-4.314-0.038-7.99 3.58-8.024 7.894l-1.004 123.378c-0.036 4.312 3.58 7.988 7.894 8.024l424.262 3.456c4.314 0.036 7.986-3.582 8.024-7.894l1.004-123.378c0.036-4.312-3.58-7.99-7.892-8.024l-424.264-3.456z" />
<glyph unicode="&#xea24;" d="M486.246 642.972l-0.212 26.078 13.038 0.104 0.212-26.076-13.038-0.106zM486.566 603.854l-0.212 26.078 13.040 0.106 0.212-26.076-13.040-0.108zM499.072 669.156l-0.106 13.040 39.118 0.318 0.104-13.036-39.116-0.322zM499.392 630.038l-0.106 13.040 39.118 0.316 0.106-13.038-39.118-0.318zM499.71 590.92l-0.106 13.042 39.118 0.318 0.106-13.042-39.118-0.318zM538.402 643.396l-0.214 26.080 13.040 0.106 0.214-26.078-13.040-0.108zM538.722 604.28l-0.212 26.078 13.040 0.108 0.212-26.080-13.040-0.106z" />
<glyph unicode="&#xea25;" d="M564.482 643.608l-0.212 26.078 13.040 0.104 0.212-26.076-13.040-0.106zM564.8 604.49l-0.212 26.080 13.040 0.106 0.212-26.076-13.040-0.11zM577.31 669.792l-0.106 13.040 39.116 0.32 0.106-13.038-39.116-0.322zM577.628 630.676l-0.106 13.040 39.114 0.318 0.108-13.038-39.116-0.32zM577.946 591.558l-0.106 13.042 39.116 0.318 0.106-13.042-39.116-0.318zM616.636 644.034l-0.21 26.078 13.038 0.106 0.212-26.078-13.040-0.106zM616.956 604.918l-0.214 26.078 13.040 0.108 0.214-26.082-13.040-0.104z" />
<glyph unicode="&#xea26;" d="M642.716 644.246l-0.212 26.080 13.040 0.108 0.214-26.080-13.042-0.108zM643.036 605.128l-0.212 26.084 13.040 0.102 0.212-26.076-13.040-0.11zM655.542 670.434l-0.106 13.036 39.116 0.32 0.106-13.038-39.116-0.318zM655.862 631.312l-0.108 13.042 39.118 0.318 0.104-13.040-39.114-0.32zM656.18 592.194l-0.104 13.042 39.114 0.32 0.106-13.042-39.116-0.32zM694.872 644.672l-0.214 26.078 13.040 0.106 0.21-26.074-13.036-0.11zM695.19 605.556l-0.214 26.076 13.040 0.108 0.214-26.076-13.040-0.108z" />
<glyph unicode="&#xea27;" d="M461.358 705.902l-163.592-1.332c-4.316-0.036-7.93-3.712-7.894-8.024l1.004-123.378c0.034-4.314 3.71-7.932 8.024-7.894l289.292 2.356-126.834 138.272z" />
<glyph unicode="&#xea28;" d="M429.87 216.851l-144.082-1.167-1.167 144.082 144.082 1.167 1.167-144.082z" />
<glyph unicode="&#xea29;" d="M428.573 376.845l-144.082-1.167-1.167 144.082 144.082 1.167 1.167-144.082z" />
<glyph unicode="&#xea2a;" d="M588.571 378.142l-144.084-1.167-1.167 144.082 144.084 1.167 1.167-144.082z" />
<glyph unicode="&#xea2b;" d="M589.876 218.155l-144.084-1.167-1.167 144.080 144.084 1.167 1.167-144.080z" />
<glyph unicode="&#xea2c;" d="M429.68 240.732l-144.084-1.167-0.974 120.202 144.084 1.167 0.974-120.202z" />
<glyph unicode="&#xea2d;" d="M428.39 400.729l-144.082-1.167-0.974 120.2 144.082 1.167 0.974-120.2z" />
<glyph unicode="&#xea2e;" d="M588.426 402.074l-144.082-1.181-0.986 120.204 144.082 1.181 0.986-120.204z" />
<glyph unicode="&#xea2f;" d="M589.674 242.027l-144.084-1.167-0.974 120.202 144.084 1.167 0.974-120.202z" />
<glyph unicode="&#xea30;" d="M627.216 522.574c-13.132-0.108-23.79-10.942-23.682-24.074l2.090-256.308c0.106-13.134 10.94-23.792 24.074-23.688l96.314 0.784c13.132 0.11 23.792 10.942 23.686 24.074l-2.090 256.31c-0.108 13.132-10.94 23.79-24.074 23.682l-96.318-0.78z" />
<glyph unicode="&#xea31;" d="M627.926 522.58c-13.524-0.114-24.496-11.268-24.39-24.79l1.886-231.008c0.106-13.528 11.264-24.5 24.786-24.39l94.898 0.774c13.522 0.11 24.496 11.262 24.39 24.79l-1.884 231.010c-0.11 13.524-11.262 24.5-24.79 24.386l-94.896-0.772z" />
<glyph unicode="&#xea32;" d="M732.876 353.87c0.054-7.032-5.6-12.778-12.63-12.834l-84.382-0.686c-7.034-0.058-12.78 5.596-12.834 12.624l-0.114 13.544c-0.056 7.032 5.596 12.778 12.628 12.834l84.386 0.686c7.030 0.058 12.776-5.596 12.834-12.624l0.112-13.544z" />
<glyph unicode="&#xea33;" d="M732.296 424.714c0.060-7.032-5.596-12.778-12.628-12.836l-84.386-0.686c-7.028-0.056-12.774 5.594-12.834 12.628l-0.11 13.542c-0.056 7.032 5.596 12.778 12.63 12.832l84.38 0.688c7.034 0.058 12.78-5.596 12.836-12.624l0.112-13.544z" />
<glyph unicode="&#xea34;" d="M385.922 479.214l-17.064-0.14-0.134 16.596c-0.040 5.048-3.808 8.844-8.858 8.802l-9.47-0.076c-5.052-0.040-9.574-3.904-9.534-8.954l0.136-16.596-16.248-0.132c-5.050-0.040-9.192-4.278-9.15-9.328l0.076-9.468c0.042-5.054 4.25-9.106 9.3-9.064l16.248 0.132 0.134-16.712c0.042-5.054 4.632-9.516 9.684-9.476l9.47 0.076c5.050 0.044 8.748 4.576 8.708 9.626l-0.134 16.714 17.062 0.138c5.054 0.040 9.17 4.16 9.128 9.208l-0.078 9.47c-0.038 5.056-4.224 9.224-9.276 9.184z" />
<glyph unicode="&#xea35;" d="M556.594 299.532c0.042-5.072-4.038-9.216-9.108-9.26l-61.232-0.496c-5.072-0.042-9.216 4.036-9.258 9.11l-0.076 9.49c-0.042 5.072 4.036 9.216 9.108 9.26l61.232 0.496c5.072 0.044 9.216-4.036 9.258-9.11l0.076-9.49z" />
<glyph unicode="&#xea36;" d="M528.24 333.812c0-6.589-5.341-11.93-11.93-11.93s-11.93 5.341-11.93 11.93c0 6.589 5.341 11.93 11.93 11.93s11.93-5.341 11.93-11.93z" />
<glyph unicode="&#xea37;" d="M528.728 274.158c0-6.59-5.342-11.932-11.932-11.932s-11.932 5.342-11.932 11.932c0 6.59 5.342 11.932 11.932 11.932s11.932-5.342 11.932-11.932z" />
<glyph unicode="&#xea38;" d="M397.396 298.27c0.042-5.072-4.038-9.25-9.108-9.294l-61.23-0.496c-5.074-0.042-9.218 4.066-9.26 9.14l-0.076 9.488c-0.042 5.074 4.036 9.188 9.11 9.23l61.228 0.496c5.074 0.044 9.218-4.006 9.26-9.074l0.076-9.49z" />
<glyph unicode="&#xea39;" d="M535.522 466.104l11.688 11.88c3.542 3.598 3.494 9.446-0.108 12.988l-6.752 6.64c-3.6 3.542-9.446 3.492-12.988-0.106l-11.688-11.88-11.88 11.69c-3.602 3.54-9.446 3.492-12.99-0.106l-6.64-6.75c-3.544-3.606-3.494-9.448 0.104-12.988l11.88-11.69-11.688-11.882c-3.54-3.6-3.494-9.444 0.108-12.986l6.75-6.644c3.602-3.54 9.444-3.492 12.99 0.108l11.688 11.88 11.88-11.688c3.602-3.544 9.446-3.496 12.988 0.106l6.642 6.75c3.542 3.602 3.494 9.448-0.104 12.988l-11.88 11.69z" />
<glyph unicode="&#xea3a;" d="M1024 448c0-282.77-229.23-512-512-512s-512 229.23-512 512c0 282.77 229.23 512 512 512s512-229.23 512-512z" />
<glyph unicode="&#xea3b;" d="M781.156 586.002h-572.286v-468.488c0-20.154 17.11-37.514 37.264-37.514h535.022c20.154 0 35.712 17.36 35.712 37.514v468.488h-35.712z" />
<glyph unicode="&#xea3c;" d="M208.87 586.002h608v-18h-608v18z" />
<glyph unicode="&#xea3d;" d="M763.998 705.044h-502.258c-29.080 0-52.87-24.738-52.87-54.968v-64.13h608v64.13c0 30.23-23.79 54.968-52.872 54.968zM380.020 663.306c0-12.352-10.010-22.368-22.356-22.368s-22.356 10.016-22.356 22.368c0 0.774 0.040 1.538 0.118 2.292-0.078 0.752-0.118 1.516-0.118 2.29 0 12.352 10.008 22.366 22.356 22.366 12.346 0 22.356-10.014 22.356-22.366 0-0.774-0.040-1.54-0.116-2.29 0.076-0.754 0.116-1.518 0.116-2.292zM690.43 663.306c0-12.352-10.008-22.368-22.358-22.368-12.344 0-22.352 10.016-22.352 22.368 0 0.774 0.040 1.538 0.118 2.292-0.078 0.752-0.118 1.516-0.118 2.29 0 12.352 10.008 22.366 22.352 22.366 12.35 0 22.358-10.014 22.358-22.366 0-0.774-0.038-1.54-0.116-2.29 0.078-0.754 0.116-1.518 0.116-2.292z" />
<glyph unicode="&#xea3e;" d="M489.26 340.714h-34.79v70.534h118.352v-230.346h-83.562v159.812z" />
<glyph unicode="&#xea3f;" d="M386.482 468.168l9.606 23.444c4.306-3.012 8.148-5.212 11.522-6.606 3.374-1.39 6.526-2.086 9.462-2.086 2.058 0 3.678 0.39 4.86 1.172 1.18 0.782 1.772 1.838 1.772 3.172 0 2.326-2.954 4.098-8.862 5.32-1.908 0.418-3.394 0.74-4.46 0.97-6.252 1.526-11.034 4.232-14.352 8.118-3.318 3.888-4.976 8.73-4.976 14.522 0 8.996 3.222 16.314 9.664 21.958 6.442 5.64 14.884 8.46 25.33 8.46 4.802 0 9.53-0.63 14.18-1.886 4.65-1.26 9.338-3.166 14.064-5.718l-9.146-21.9c-2.898 2.134-5.804 3.766-8.722 4.89-2.914 1.124-5.744 1.686-8.49 1.686-2.096 0-3.716-0.352-4.86-1.058s-1.714-1.686-1.714-2.948c0-2.362 4.172-4.438 12.522-6.23 1.334-0.306 2.364-0.536 3.088-0.686 5.754-1.296 10.292-3.946 13.608-7.948s4.974-8.844 4.974-14.522c0-9.264-3.344-16.832-10.036-22.7-6.688-5.874-15.39-8.808-26.102-8.808-5.488 0-10.978 0.782-16.466 2.346-5.488 1.568-10.978 3.91-16.466 7.038z" />
<glyph unicode="&#xea40;" d="M464.7 499.33v45.4h30.076v-45.628c0-5.3 0.628-8.95 1.886-10.95 1.258-2.002 3.412-3.002 6.462-3.002 3.010 0 5.164 1.028 6.462 3.088 1.294 2.058 1.944 5.68 1.944 10.864v45.628h30.076v-45.4c0-5.948-0.39-10.844-1.172-14.696-0.784-3.85-2.030-7.072-3.744-9.662-3.356-5.222-7.93-9.224-13.722-12.006-5.794-2.782-12.408-4.176-19.842-4.176-7.472 0-14.106 1.394-19.898 4.176-5.794 2.782-10.37 6.784-13.722 12.006-1.68 2.554-2.898 5.736-3.662 9.548-0.762 3.812-1.144 8.75-1.144 14.81z" />
<glyph unicode="&#xea41;" d="M557.214 461.020v83.71h29.504l26.018-43.8c-0.344 1.946-0.582 4.098-0.714 6.46-0.134 2.366-0.202 5.454-0.202 9.264v28.076h28.99v-83.71h-29.734l-25.73 43.456c0.304-1.868 0.536-3.878 0.688-6.032s0.228-4.566 0.228-7.234v-30.19h-29.048z" />
<glyph unicode="&#xea42;" d="M208.87 612.002h608v-26h-608v26z" />
<glyph unicode="&#xea43;" d="M764.032 705.044h-501.732c-29.048 0-52.814-24.738-52.814-54.968v-18.324c0 30.232 23.766 54.966 52.814 54.966h83.786c3.474 2.234 7.604 3.536 12.040 3.536 4.434 0 8.564-1.302 12.040-3.536h286.004c3.474 2.234 7.606 3.536 12.040 3.536 4.436 0 8.566-1.302 12.040-3.536h83.786c29.048 0 52.814-24.734 52.814-54.966v18.324c-0.004 30.23-23.77 54.968-52.818 54.968z" />
<glyph unicode="&#xea44;" d="M358.36 645.522c-11.578 0-21.104 8.798-22.25 20.076-0.078-0.754-0.118-1.518-0.118-2.292 0-12.352 10.014-22.368 22.368-22.368 12.352 0 22.366 10.016 22.366 22.368 0 0.774-0.040 1.538-0.116 2.292-1.148-11.278-10.672-20.076-22.25-20.076z" />
<glyph unicode="&#xea45;" d="M668.93 645.522c-11.578 0-21.104 8.798-22.25 20.076-0.076-0.754-0.116-1.518-0.116-2.292 0-12.352 10.014-22.368 22.366-22.368 12.354 0 22.368 10.016 22.368 22.368 0 0.774-0.038 1.538-0.116 2.292-1.146-11.278-10.672-20.076-22.252-20.076z" />
<glyph unicode="&#xea46;" d="M376.224 672.064c0 22.246 0 44.496 0 66.742 0 9.99-8.334 18.324-18.324 18.324-9.988 0-18.324-8.334-18.324-18.324 0-22.246 0-44.496 0-66.742 0-9.988 8.336-18.324 18.324-18.324 9.99 0 18.324 8.336 18.324 18.324v0z" />
<glyph unicode="&#xea47;" d="M687.714 672.064c0 22.246 0 44.496 0 66.742 0 9.99-8.336 18.324-18.324 18.324s-18.322-8.334-18.322-18.324c0-22.246 0-44.496 0-66.742 0-9.988 8.334-18.324 18.322-18.324 9.986 0 18.324 8.336 18.324 18.324v0z" />
<glyph unicode="&#xea48;" d="M1024 448c0-282.77-229.23-512-512-512s-512 229.23-512 512c0 282.77 229.23 512 512 512s512-229.23 512-512z" />
<glyph unicode="&#xea49;" d="M443.732 732h363.656c40.818 0 71.48-34.526 71.48-75.344v-197.908c0-40.818-30.662-78.748-71.48-78.748h-62.52v-101.844c0-13.606-5.184-18.158-13.438-7.344l-83.548 109.188h-204.15c-40.818 0-76.864 37.93-76.864 78.748v197.908c0.002 40.818 36.046 75.344 76.864 75.344z" />
<glyph unicode="&#xea4a;" d="M366.87 616v-157.252c0-40.818 36.044-78.748 76.864-78.748h204.148l83.55-109.188c8.254-10.814 13.438-6.262 13.438 7.344v101.844h62.52c11.418 0 22.25 4.464 31.934 9.226l-225.004 226.774h-247.45z" />
<glyph unicode="&#xea4b;" d="M583.246 630h-363.656c-40.816 0-74.72-33.852-74.72-74.67v-197.908c0-40.82 33.904-75.422 74.72-75.422h59.28v-105.17c0-13.606 6.804-16.496 15.060-5.682l85.17 110.852h204.146c40.82 0 73.622 34.602 73.622 75.422v197.908c0.002 40.818-32.802 74.67-73.622 74.67z" />
<glyph unicode="&#xea4c;" d="M254.87 534c94 0 191.8 0 287.044 0 1.516 0 2.956 0 2.956 0 6 0 6 18 0 18-96 0-188.902 0-284.142 0-1.514 0-5.858 0-5.858 0-12 0-12-18 0-18z" />
<glyph unicode="&#xea4d;" d="M544.87 472c-96 0-188.902 0-284.142 0-1.514 0-5.858 0-5.858 0-12 0-12-20 0-20 94 0 191.8 0 287.044 0 1.516 0 2.956 0 2.956 0 6 0 6 20 0 20z" />
<glyph unicode="&#xea4e;" d="M544.87 380c-96 0-188.902 0-284.142 0-1.514 0-5.858 0-5.858 0-12 0-12-20 0-20 94 0 191.8 0 287.044 0 1.516 0 2.956 0 2.956 0 6 0 6 20 0 20z" />
<glyph unicode="&#xea4f;" d="M144.87 555.33v-197.908c0-40.82 33.904-75.422 74.72-75.422h59.28v-105.17c0-13.606 6.804-16.496 15.060-5.682l85.17 110.852h184.56l-348.81 348.664c-38.762-2.424-69.98-36.014-69.98-75.334z" />
<glyph unicode="&#xea50;" d="M1023.98 452.261c2.354-282.759-224.962-513.887-507.721-516.243-282.759-2.354-513.887 224.964-516.241 507.723-2.302 276.681 219.692 513.845 507.719 516.241 282.759 2.35 513.893-224.962 516.243-507.721z" />
<glyph unicode="&#xea51;" d="M858.244 947.312l-549.547-4.57-251.306-259.109 0.144-17.462 3.984-461.643c87.326-161.244 258.593-270.139 454.737-268.509 198.414 1.652 369.509 115.954 453.127 281.681l-3.896 468.177-1.432 155.51c-0.48 57.716-48.094 106.41-105.812 105.926z" />
<glyph unicode="&#xea52;" d="M669.115 614.637l-304.137-2.53 306.667-301.223z" />
<glyph unicode="&#xea53;" d="M364.977 612.107l-23.532-0.196 2.642-317.429 327.669 2.728-0.112 13.674z" />
<glyph unicode="&#xea54;" d="M310.431 734.056l252.974 210.806-254.708-2.12-111.080-256.221z" />
<glyph unicode="&#xea55;" d="M263.659 686.359c25.946 0.216 46.132 20.602 45.92 46.542l-1.728 207.544-251.734-255.812 207.542 1.726z" />
<glyph unicode="&#xea56;" d="M730.451 627.509c-0.19 22.628-19.974 42.086-42.604 41.898-118.45-0.986-236.904-1.968-355.355-2.958-22.63-0.188-42.534-19.976-42.346-42.606 0.986-118.454 1.974-236.902 2.958-355.353 0.19-22.63 20.422-42.532 43.052-42.344 118.45 0.982 237.186 1.976 356.649 2.968 15.266 0.128 25.884 7.834 31.954 18.536 5.374 6.586 8.726 15.292 8.632 26.178-0.964 116.048-1.954 235.228-2.94 353.681zM647.721 314.075c-90.196-0.752-180.024-1.496-269.641-2.244-0.748 89.882-1.498 179.758-2.244 269.641 89.884 0.75 179.764 1.496 269.643 2.246 0.752-90.3 1.502-180.746 2.242-269.643z" />
<glyph unicode="&#xea57;" d="M647.055 394.283c0.222-26.834 0.442-53.602 0.666-80.208-90.196-0.752-180.024-1.496-269.641-2.244-0.748 89.882-1.498 179.758-2.244 269.641 26.738 0.222 53.474 0.446 80.21 0.672l-86.040 84.616c-12.506-0.102-25.010-0.208-37.512-0.312-22.63-0.188-42.534-19.976-42.346-42.606 0.986-118.454 1.974-236.902 2.958-355.353 0.19-22.63 20.422-42.532 43.052-42.344 118.45 0.982 237.186 1.976 356.649 2.968 15.266 0.128 25.884 7.834 31.954 18.536 5.374 6.586 8.726 15.292 8.632 26.178-0.1 11.906-0.196 23.866-0.296 35.836l-86.042 84.62z" />
<glyph unicode="&#xea58;" d="M872.65 692.161c0.134 0.112 0.266 0.23 0.396 0.348 16.98 14.978 14.784 43.686-0.49 58.708-16.98 16.7-41.754 14.468-58.706-0.488-82.814-73.062-165.626-145.756-248.444-218.596l59.516-58.536c82.578 72.854 165.154 145.706 247.728 218.564z" />
<glyph unicode="&#xea59;" d="M565.407 532.133c-21.896-19.26-43.8-38.528-65.696-57.826-29.212 33.19-58.44 68.658-87.66 102.69-14.752 17.184-43.842 14.232-58.704-0.882-16.864-17.14-14.236-41.946 0.49-59.1 37.664-43.868 75.326-87.732 112.986-131.598 15.486-18.040 42.88-13.478 58.708 0.486 33.132 29.228 66.266 58.462 99.392 87.696l-59.516 58.534zM466.725 445.253c-0.134-0.112-0.274 0.438-0.404 0.438 0.302 0.002 0.602 0.002 0.906 0.002-0.17-0.142-0.336-0.292-0.502-0.44z" />
<glyph unicode="&#xea5a;" d="M1024 448c0-282.77-229.23-512-512-512s-512 229.23-512 512c0 282.77 229.23 512 512 512s512-229.23 512-512z" />
<glyph unicode="&#xea5b;" d="M623.63 726c-10.804 0-20.762-9.168-20.762-19.97v-275.852c0-10.806-7.728-18.178-18.534-18.178h-144.606c-10.806 0-20.862 7.372-20.862 18.178v275.852c0 10.802-7.63 19.97-18.432 19.97h-47.88c-10.806 0-13.084 5.762-5.056 12.996l149.944 135.108c8.024 7.236 21.156 7.198 29.184-0.042l149.936-135.046c8.028-7.232 5.75-13.018-5.056-13.018l-47.876 0.002z" />
<glyph unicode="&#xea5c;" d="M418.396 706.412c0 10.8-7.156 19.588-17.958 19.588h-47.88c-10.806 0-13.084 5.762-5.056 12.996l149.944 135.108c8.024 7.236 21.156 7.198 29.184-0.042l57.764-52.222-165.684-261.472-0.314 146.044z" />
<glyph unicode="&#xea5d;" d="M786.87 381.61c0 0.042 0 0.080 0 0.122 0 109.936-89.046 199.062-198.988 199.062-75.7 0-141.488-42.256-175.146-104.464-7.684 1.272-15.548 1.944-23.592 1.944-70.080 0-128.406-50.24-140.968-116.666-58.376-9.042-103.056-60.172-103.056-121.084 0-67.304 54.566-122.524 121.87-122.524 0.056 0 0.114 0 0.168 0l-0.174 0.2 468.95 0.796c75.17 0 136.026 61.106 136.026 136.272-0.004 57.094-37.090 106.138-85.090 126.342z" />
<glyph unicode="&#xea5e;" d="M826.87 273.636c0 0.024 0 0.046 0 0.070 0 64.832-51.468 117.392-116.302 117.392-44.642 0-82.916-24.92-102.77-61.602-4.53 0.75-8.904 1.144-13.65 1.144-41.326 0-75.59-29.628-83.004-68.8-34.426-5.33-60.704-35.574-60.704-71.492 0-39.696 32.25-72.348 71.936-72.348 0.034 0 0.066 0 0.098 0l-0.102 0.212 276.544 0.514c44.33 0 79.176 36.056 79.176 80.382-0.002 33.67-19.222 62.614-51.222 74.528z" />
<glyph unicode="&#xea5f;" d="M1024 448c0-282.77-229.23-512-512-512s-512 229.23-512 512c0 282.77 229.23 512 512 512s512-229.23 512-512z" />
<glyph unicode="&#xea60;" d="M625.226 186c-10.962 0-20.358 10.244-20.358 21.206v279.878c0 10.966-8.546 18.916-19.508 18.916h-146.716c-10.966 0-19.774-7.95-19.774-18.916v-279.878c0-10.962-9.132-21.206-20.096-21.206h-48.578c-10.962 0-13.272-5.37-5.13-12.71l152.13-136.846c8.144-7.344 21.466-7.184 29.61 0.16l152.126 136.604c8.142 7.34 5.834 12.794-5.13 12.794l-48.576-0.002z" />
<glyph unicode="&#xea61;" d="M585.36 506h-146.716c-10.966 0-19.774-7.95-19.774-18.916v-88.164l186 0.188v87.976c0 10.966-8.546 18.916-19.51 18.916z" />
<glyph unicode="&#xea62;" d="M417.3 354.806l168.106-265.16-58.6-53.044c-8.144-7.344-21.466-7.504-29.61-0.16l-152.13 136.846c-8.142 7.34-5.834 12.71 5.13 12.71h48.578c10.962 0 18.52 9.516 18.52 20.478l0.006 148.33z" />
<glyph unicode="&#xea63;" d="M778.87 703.85c0 0.040 0 0.080 0 0.122 0 114.174-93.25 206.73-207.422 206.73-78.614 0-147.324-43.882-182.28-108.486-7.978 1.322-16.336 2.020-24.69 2.020-72.78 0-133.448-52.176-146.498-121.166-60.626-9.386-107.080-61.53-107.080-124.784 0-69.894 56.626-126.288 126.524-126.288 0.060 0 0.116 0 0.174 0l-0.18-0.746 487.006 0.344c78.066 0 142.036 63.218 142.036 141.28-0.002 59.294-39.59 109.992-87.59 130.974z" />
<glyph unicode="&#xea64;" d="M820.87 591.716c0 0.024 0 0.050 0 0.070 0 67.332-54.454 121.916-121.784 121.916-46.364 0-86.61-25.88-107.226-63.976-4.706 0.778-9.498 1.19-14.43 1.19-42.916 0-78.628-30.77-86.322-71.454-35.752-5.534-63.11-35.986-63.11-73.29 0-41.218 33.428-74.174 74.644-74.174 0.036 0 0.066 0 0.104 0l-0.108-0.738 287.196 0.054c46.034 0 83.224 37.208 83.224 83.242 0.002 34.968-22.188 64.788-52.188 77.16z" />
<glyph unicode="&#xea65;" d="M1024 448c0-282.77-229.23-512-512-512s-512 229.23-512 512c0 282.77 229.23 512 512 512s512-229.23 512-512z" />
<glyph unicode="&#xea66;" d="M828.444 584.22c-1.46 1.5-3.070 2.842-4.806 4.024l-311.638 260.932-316.444-264.956c-0.324-0.334-0.274-0.318 0.080-0.056l316.364-218.714 316.444 218.77z" />
<glyph unicode="&#xea67;" d="M321.37 224h384.484c31.712 0 56.146 26.2 56.146 57.914v463.1c0 31.712-24.434 58.986-56.146 58.986h-301.95l-139.904-141.518v-380.568c0-31.714 25.656-57.914 57.37-57.914z" />
<glyph unicode="&#xea68;" d="M403.904 689.18l139.95 114.82h-139.95l-62.204-140.34z" />
<glyph unicode="&#xea69;" d="M377.984 664c14.256 0 26.016 10.146 26.016 24.4v114.034l-140.050-138.434h114.034z" />
<glyph unicode="&#xea6a;" d="M666 418c0 0-83.224 0-125.526 0-56.33 0-112.658 0-168.988 0-3.88 0-9.486 0-11.486 0-12 0-12-18 0-18 40 0 84.446 0 126.75 0 56.326 0 112.656 0 168.986 0 3.88 0 6.264 0 10.264 0 10 0 10 18 0 18 0 0 10 0 0 0z" />
<glyph unicode="&#xea6b;" d="M666 486c0 0-83.224 0-125.526 0-56.33 0-112.658 0-168.988 0-3.88 0-9.486 0-11.486 0-12 0-12-16 0-16 40 0 84.446 0 126.75 0 56.326 0 112.656 0 168.986 0 3.88 0 6.264 0 10.264 0 10 0 10 16 0 16 0 0 10 0 0 0z" />
<glyph unicode="&#xea6c;" d="M666 554c0 0-83.224 0-125.526 0-56.33 0-112.658 0-168.988 0-3.88 0-9.486 0-11.486 0-12 0-12-16 0-16 40 0 84.446 0 126.75 0 56.326 0 112.656 0 168.986 0 3.88 0 6.264 0 10.264 0 10 0 10 16 0 16 0 0 10 0 0 0z" />
<glyph unicode="&#xea6d;" d="M666 622c0 0-83.224 0-125.526 0-56.33 0-112.658 0-168.988 0-3.88 0-9.486 0-11.486 0-12 0-12-16 0-16 40 0 84.446 0 126.75 0 56.326 0 112.656 0 168.986 0 3.88 0 6.264 0 10.264 0 10 0 10 16 0 16 0 0 10 0 0 0z" />
<glyph unicode="&#xea6e;" d="M836 562.934c0 8.256-2.754 15.77-8.122 21.288l-316.16-218.772 320.368-221.776c2.75 4.586 3.914 9.938 3.914 15.646v403.614z" />
<glyph unicode="&#xea6f;" d="M512 365.45l-316.444 218.77c-2.010-2.066-3.734-4.418-5.104-6.976-0.008-0.014-0.010-0.024-0.016-0.036-0.22-0.412-0.434-0.832-0.636-1.262-0.012-0.028-0.026-0.056-0.040-0.090-0.194-0.408-0.376-0.818-0.55-1.234-0.024-0.052-0.042-0.106-0.064-0.156-0.162-0.4-0.32-0.8-0.466-1.204-0.030-0.076-0.052-0.156-0.080-0.236-0.136-0.382-0.266-0.768-0.386-1.156-0.036-0.11-0.062-0.226-0.096-0.34-0.106-0.356-0.21-0.716-0.302-1.084-0.040-0.148-0.070-0.294-0.104-0.444-0.080-0.334-0.164-0.668-0.23-1.004-0.040-0.188-0.068-0.378-0.104-0.562-0.056-0.306-0.114-0.612-0.16-0.918-0.038-0.236-0.060-0.476-0.094-0.714-0.034-0.262-0.074-0.526-0.1-0.792-0.030-0.304-0.046-0.614-0.070-0.918-0.012-0.206-1.472-0.406-1.482-0.614-0.024-0.512-1.472-1.030-1.472-1.548v-403.612c0-0.64 1.462-1.276 1.498-1.91 0.012-0.18 0.748-0.358 0.76-0.538 0.038-0.486 0.448-0.97 0.508-1.45 0.020-0.158 0.216-0.314 0.24-0.47 0.092-0.624 0.286-1.246 0.414-1.86 0.010-0.042 0.066-0.080 0.076-0.122 0.124-0.576 0.288-1.146 0.442-1.708 0.040-0.136 0.088-0.274 0.13-0.406 0.152-0.524 0.32-1.044 0.5-1.556 0.026-0.080 0.054-0.154 0.084-0.23 0.216-0.612 0.454-1.21 0.712-1.804 0.010-0.020 0.020-0.044 0.030-0.068 0.244-0.552 0.502-1.1 0.776-1.636 0.042-0.086 0.086-0.172 0.134-0.26 0.286-0.552 0.586-1.094 0.904-1.628l320.792 221.776z" />
<glyph unicode="&#xea70;" d="M191.208 143.674c0.332-0.55 0.682-1.090 1.046-1.622 0.014-0.020 0.030-0.042 0.046-0.062 0.33-0.476 0.674-0.946 1.030-1.4 0.060-0.076 0.12-0.156 0.184-0.232 0.356-0.448 0.722-0.888 1.102-1.316 0.024-0.028 0.046-0.050 0.068-0.078 0.422-0.468 0.86-0.93 1.31-1.374 0.016-0.020 0.038-0.034 0.054-0.052 0.41-0.4 0.83-0.788 1.26-1.168 0.090-0.076 0.176-0.152 0.266-0.228 0.4-0.344 0.81-0.678 1.226-1 0.064-0.050 0.126-0.104 0.19-0.15 0.49-0.378 0.994-0.736 1.506-1.080 0.034-0.024 0.066-0.044 0.096-0.064 0.462-0.304 0.932-0.6 1.41-0.88 0.126-0.076 0.254-0.146 0.38-0.22 0.42-0.242 0.842-0.468 1.276-0.686 0.114-0.060 0.224-0.122 0.336-0.174 0.542-0.268 1.092-0.522 1.654-0.758 0.046-0.020 0.092-0.038 0.136-0.056 0.502-0.208 1.012-0.406 1.53-0.584 0.16-0.056 0.32-0.11 0.48-0.166 0.434-0.144 0.866-0.276 1.306-0.404 0.156-0.044 0.31-0.090 0.47-0.132 0.584-0.156 1.17-0.3 1.766-0.42 0.040-0.010 0.080-0.018 0.124-0.024 0.55-0.11 1.11-0.204 1.672-0.284 0.182-0.028 0.366-0.052 0.55-0.070 0.446-0.056 0.892-0.104 1.346-0.136 0.18-0.016 0.364-0.402 0.55-0.416 0.616-0.040 1.236-0.434 1.866-0.434h589.108c0.63 0 1.25 0.394 1.866 0.434 0.186 0.014 0.37 0.212 0.554 0.23 0.45 0.036 0.896 0.172 1.342 0.23 0.184 0.024 0.368 0.090 0.55 0.118 0.56 0.080 1.118 0.196 1.666 0.304 0.042 0.008 0.086 0.024 0.128 0.030 0.596 0.126 1.184 0.276 1.766 0.432 0.16 0.042 0.314 0.086 0.47 0.134 0.44 0.124 0.874 0.262 1.304 0.406 0.164 0.056 0.324 0.11 0.486 0.166 0.51 0.18 1.016 0.374 1.516 0.58 0.050 0.020 0.1 0.042 0.146 0.060 0.56 0.236 1.11 0.49 1.65 0.756 0.116 0.060 0.23 0.122 0.346 0.178 0.426 0.218 0.85 0.444 1.266 0.686 0.13 0.074 0.256 0.146 0.386 0.22 0.474 0.28 0.94 0.572 1.396 0.874 0.038 0.024 0.074 0.046 0.11 0.070 0.51 0.344 1.010 0.702 1.5 1.076 0.070 0.050 0.132 0.108 0.2 0.156 0.414 0.324 0.82 0.654 1.216 0.994 0.090 0.076 0.182 0.156 0.276 0.24 0.422 0.372 0.84 0.754 1.244 1.15 0.020 0.022 0.042 0.042 0.066 0.066 0.448 0.442 0.884 0.896 1.304 1.366 0.026 0.032 0.050 0.064 0.080 0.092 0.372 0.422 0.736 0.86 1.086 1.298 0.066 0.084 0.132 0.168 0.196 0.246 0.35 0.45 0.69 0.908 1.014 1.376 0.020 0.032 0.042-0.778 0.060-0.748 0.364 0.524 0.71 0.774 1.038 0.774 0.002 0 0.002 0 0.002 0l-320.782 222.616-320.792-220.94z" />
<glyph unicode="&#xea71;" d="M1024 448c0-282.77-229.23-512-512-512s-512 229.23-512 512c0 282.77 229.23 512 512 512s512-229.23 512-512z" />
<glyph unicode="&#xea72;" d="M662.87 634.814v137.186h-300v-137.186c0 0-4.976-77.54 58.032-113.052 40.438-22.788 80.694-49.762 80.562-73.762h16.594c-0.132 24 43.23 50.974 83.67 73.762 63.004 35.514 61.142 113.052 61.142 113.052z" />
<glyph unicode="&#xea73;" d="M362.87 258.22v-134.22h300v134.22c0 0 1.878 79.028-61.13 114.536-40.442 22.794-83.782 51.244-83.65 75.244h-16.6c0.14-24-40.136-52.45-80.57-75.244-63.008-35.506-58.050-114.536-58.050-114.536z" />
<glyph unicode="&#xea74;" d="M686.87 803.002c0-9.388-7.612-17-17-17h-314c-9.388 0-17 7.612-17 17v0c0 9.388 7.612 17 17 17h314c9.388 0 17-7.612 17-17v0z" />
<glyph unicode="&#xea75;" d="M671.924 779c0-4.376-5.060-7-11.24-7h-301.814c-6.186 0-11.238 2.624-11.238 7s5.052 7 11.238 7h301.814c6.18 0 11.24-2.624 11.24-7z" />
<glyph unicode="&#xea76;" d="M671.924 117c0-4.372-5.060-7-11.24-7h-301.814c-6.186 0-11.238 2.628-11.238 7s5.052 7 11.238 7h301.814c6.18 0 11.24-2.628 11.24-7z" />
<glyph unicode="&#xea77;" d="M686.87 93c0-9.388-7.612-17-17-17h-314c-9.388 0-17 7.612-17 17v0c0 9.388 7.612 17 17 17h314c9.388 0 17-7.61 17-17v0z" />
<glyph unicode="&#xea78;" d="M364.698 124c0 0 64.84 90.52 145.066 90.52s145.094-90.52 145.094-90.52h-290.16z" />
<glyph unicode="&#xea79;" d="M493.85 571.67c-51.28 18.124-90.312 24.3-118.94 25.106 6.166-22.588 19.694-50.102 49.38-66.836 42.192-23.776 73.484-44.69 85.472-65.29 11.992 20.598 43.284 41.51 85.48 65.29 19.26 10.854 31.706 26.324 39.774 42.042-32.086-14.45-78.898-22.322-141.166-0.312z" />
<glyph unicode="&#xea7a;" d="M506.35 474.89c0.574-87.964 1.148-175.93 1.72-263.894 0.026-4.402 6.854-4.404 6.826 0-0.574 87.964-1.146 175.93-1.718 263.894-0.028 4.402-6.856 4.404-6.828 0v0z" />
<glyph unicode="&#xea7b;" d="M514.896 211.74c-0.512 78.508-1.028 158.26-1.534 236.26h-6.826c0.506-78 1.020-157.38 1.534-235.888 0.026-4.398 6.854-4.776 6.826-0.372z" />
<glyph unicode="&#xea7c;" d="M614.798 109.368l-13.654 13.262-216.052 216.766c-25.398-36.988-22.222-81.174-22.222-81.174v-134.222h-4c-6.186 0-11.238-2.628-11.238-7s5.052-7 11.238-7h-4.624c-9.422 0-17.066-7.574-17.066-17 0-9.428 7.644-17 17.066-17h294.686l-34.134 33.368z" />
<glyph unicode="&#xea7d;" d="M414.548 770.784l-13.652 14.372-34.132 34.844h-12.52c-9.422 0-17.066-7.574-17.066-17 0-9.428 7.644-17 17.066-17h4.624c-6.186 0-11.238-2.624-11.238-7s5.052-7 11.238-7h4v-137.186c0 0-4.976-77.54 58.032-113.052 40.44-22.788 80.696-49.762 80.564-73.762h16.594c-0.132 24 42.52 50.974 82.96 73.762 14.392 8.114 25.332 18.092 33.692 29.23l-220.162 219.792z" />
<glyph unicode="&#xea7e;" d="M1024 448c0-282.77-229.23-512-512-512s-512 229.23-512 512c0 282.77 229.23 512 512 512s512-229.23 512-512z" />
<glyph unicode="&#xea7f;" d="M293.104 30.146c41.080 41.080 82.152 82.154 123.232 123.234 21.224 21.222 42.448 42.446 63.674 63.672 11.876 11.876 21.46 24.664 27.516 40.57 12.636 33.198 2.856 72.714-22.002 97.57-21.546 21.546-43.098 43.094-64.642 64.64-7.744 7.746-16.538 14.74-26.458 19.458-19 9.028-38.126 10.94-58.758 8.266-20.278-2.626-38.422-14.444-52.576-28.596-48.134-48.134-96.264-96.26-144.392-144.396-16.344-16.338-32.68-32.678-49.024-49.018-23.184-23.188-31.404-55.36-25.598-87.174 4.124-22.586 18.646-39.774 34.274-55.408 18.594-18.592 37.18-37.178 55.766-55.77 14.282-14.272 32.718-25.122 52.98-27.744 30.414-3.946 59.614 4.242 81.886 25.908 1.578 1.538 2.65 3.316 4.122 4.788zM343.36 385.538c-1.622-0.722-2.76-1.226-3.53-1.566 1.16 0.556 2.36 1.046 3.53 1.566zM131.41 138.294c-0.080 0.1-0.154 0.202-0.24 0.29-1.508 1.636-4.8 6.544 0.24-0.29zM226.316 60.806c-0.386-0.010-0.858-0.028-1.454-0.060-1.542-0.076-5.98 0.248-7.438 0.278-1.888 0.404-3.764 0.892-5.616 1.438-0.394 0.114-0.906 0.284-1.428 0.466-0.586 0.294-1.174 0.59-1.76 0.886-1.492 0.756-2.926 1.638-4.354 2.516-1.156 0.714-1.654 1.29-2.020 1.464-9.588 8.188-18.114 18.014-26.982 26.886-12.636 12.636-25.278 25.278-37.918 37.916-1.126 1.126-2.254 2.25-3.378 3.376-0.72 0.724-1.476 1.41-2.114 2.214-1.14 1.644-2.226 3.3-3.22 5.026-0.6 1.032-1.164 2.060-1.674 3.136-0.926 2.646-1.594 5.362-2.13 8.112-0.12 1.602-0.13 3.194-0.13 4.794-0.004 0.66 0.020 1.308 0.052 1.97 0.12 1.066 0.274 2.306 0.428 3.052 0.318 1.514 1.742 5.614 2.18 7.094 0.912 1.774 1.906 3.51 2.954 5.204 1.202 1.952 5.1 6.884-1.154-1.148 1.068 1.366 2.126 2.746 3.294 4.020 0.454 0.49 0.822 1.076 1.298 1.552 1.534 1.532 3.074 3.070 4.608 4.602 8.154 8.158 16.306 16.314 24.466 24.464 27.306 27.316 54.62 54.63 81.934 81.938 24.218 24.216 48.44 48.442 72.666 72.662 4.288 4.294 8.58 8.588 12.874 12.876 1.644 1.646 3.496 3.062 5.29 4.536-8.51-7.010 0.616-0.122 3.26 1.31 0.104 0.060 0.18 0.14 0.28 0.19 0.792 0.31 2.098 0.852 2.944 1.128 1.566 0.5 3.174 0.872 4.774 1.25 0.554 0.134 1.42 0.274 2.29 0.406 2.518 0.134 5.044 0.088 7.558-0.040 1.152-0.226 2.298-0.476 3.446-0.746 1.542-0.372 3.050-0.848 4.554-1.33 3.1-1.542 6.072-3.372 8.926-5.352-8.666 6.008-0.486 0.054 1.906-2.342 1.594-1.588 3.188-3.178 4.782-4.772 5.906-5.91 11.812-11.812 17.714-17.716 12.908-12.906 25.814-25.814 38.724-38.72 1.322-1.334 2.654-2.658 3.98-3.98 0.18-0.18 0.36-0.364 0.54-0.544 1.232-1.236 2.416-2.492 3.56-3.802 0.014-0.020-0.074-0.128-0.060-0.146 0.006-0.006-0.040-0.058-0.034-0.072 1.016-1.55 1.91-3.18 2.764-4.824 0.15-0.732 1.996-5.638 2.416-7.432 0.114-0.47 0.194-0.948 0.288-1.418 0.076-0.684 0.146-1.43 0.178-1.958 0.082-1.634 0.042-3.272 0.002-4.904-0.014-0.504-0.026-0.934-0.026-1.29-0.508-2.778-1.258-5.502-2.114-8.192-0.546-1.118-1.13-2.226-1.72-3.318-0.372-0.692-0.774-1.354-1.18-2.010-0.182-0.206-0.294-0.582-0.598-0.952-1.122-1.368-2.47-2.552-3.722-3.806-1.38-1.378-2.754-2.756-4.134-4.132-48.982-48.98-97.964-97.966-146.954-146.952-15.192-15.196-30.386-30.392-45.586-45.586-1.126-1.13-2.264-2.216-3.18-3.476-2.168-1.42-4.494-2.594-6.812-3.736-1.464-0.492-2.98-0.864-4.474-1.264-1.166-0.308-2.38-0.514-3.566-0.742z" />
<glyph unicode="&#xea80;" d="M742.096 479.14c41.080 41.080 82.154 82.156 123.23 123.232 21.222 21.228 42.45 42.448 63.676 63.674 11.88 11.878 21.198 24.402 27.254 40.304 12.632 33.198 2.588 72.444-22.27 97.304-21.55 21.546-43.098 43.092-64.642 64.642-7.744 7.74-16.274 15.004-26.194 19.72-18.996 9.028-37.994 11.070-58.624 8.402-20.276-2.626-38.29-14.312-52.442-28.466-48.134-48.132-96.264-96.264-144.394-144.392-16.34-16.34-32.68-32.68-49.020-49.020-23.188-23.188-31.668-55.624-25.868-87.442 4.122-22.588 18.38-40.038 34.014-55.67 18.588-18.594 37.174-37.182 55.764-55.768 14.278-14.274 32.982-24.86 53.25-27.486 30.406-3.934 59.74 4.378 82.014 26.048 1.576 1.534 2.788 3.444 4.252 4.918zM792.358 834.53c-1.62-0.724-2.762-1.224-3.534-1.566 1.158 0.558 2.362 1.046 3.534 1.566zM580.404 587.29c-0.082 0.096-0.154 0.196-0.242 0.284-1.502 1.642-4.798 6.542 0.242-0.284zM675.31 509.802c-0.386-0.012-0.854-0.030-1.452-0.062-1.542-0.080-5.982 0.246-7.44 0.278-1.89 0.402-3.764 0.888-5.618 1.434-0.39 0.114-0.906 0.288-1.422 0.472-0.592 0.29-1.178 0.58-1.762 0.882-1.496 0.758-2.93 1.64-4.356 2.52-1.154 0.708-1.92 1.028-2.284 1.194-9.592 8.188-18.384 17.754-27.25 26.622-12.64 12.636-25.282 25.276-37.92 37.92-1.124 1.118-2.25 2.25-3.378 3.372-0.724 0.722-1.21 1.68-1.85 2.482-1.14 1.636-2.094 3.434-3.090 5.154-0.598 1.034-1.094 2.13-1.606 3.208-0.922 2.648-1.558 5.394-2.096 8.14-0.118 1.598-0.118 3.212-0.118 4.81 0 0.662 0.034 1.322 0.068 1.98 0.12 1.068 0.276 2.308 0.432 3.056 0.314 1.516 1.744 5.62 2.182 7.092 0.912 1.778 1.906 3.512 2.954 5.208 1.2 1.952 5.1 6.886-1.15-1.146 1.062 1.368 2.124 2.746 3.294 4.018 0.454 0.496 0.82 1.080 1.296 1.552 1.538 1.538 3.072 3.072 4.608 4.612 8.16 8.152 16.312 16.312 24.466 24.464 27.31 27.31 54.624 54.624 81.934 81.934 24.22 24.22 48.444 48.444 72.668 72.666 4.286 4.292 8.578 8.584 12.874 12.872 1.638 1.646 3.496 3.056 5.292 4.534-8.514-7.008 0.614-0.124 3.26 1.31 0.1 0.058 0.176 0.136 0.282 0.19 0.786 0.31 2.092 0.854 2.942 1.13 1.564 0.5 3.174 0.874 4.772 1.246 0.552 0.132 1.42 0.274 2.29 0.406 2.518 0.128 5.042 0.090 7.556-0.038 1.154-0.228 2.3-0.482 3.448-0.75 1.54-0.366 3.046-0.846 4.552-1.336 3.098-1.536 5.812-3.628 8.66-5.608-8.664 6.010-0.746-0.212 1.646-2.61 1.59-1.586 3.18-3.188 4.774-4.774 5.906-5.91 11.814-11.812 17.72-17.722 12.906-12.908 25.812-25.814 38.718-38.72 1.328-1.324 2.654-2.65 3.98-3.982 0.18-0.178 0.36-0.354 0.542-0.542 1.23-1.23 2.684-2.22 3.824-3.534 0.014-0.020 0.058 0.010 0.074-0.008 0.006-0.012 0.032 0.002 0.036-0.006 1.018-1.552 1.944-3.152 2.792-4.792 0.15-0.732 2.018-5.624 2.438-7.414 0.11-0.468 0.198-0.944 0.292-1.412 0.078-0.68 0.154-1.418 0.176-1.954 0.088-1.634 0.050-3.268 0.008-4.898-0.014-0.512-0.024-0.94-0.024-1.294-0.506-2.772-1.256-5.5-2.114-8.184-0.546-1.124-1.128-2.23-1.718-3.326-0.376-0.684-0.772-1.354-1.182-2.004-0.18-0.208-0.294-0.584-0.592-0.954-1.13-1.368-2.474-2.55-3.726-3.804-1.378-1.378-2.754-2.756-4.134-4.132-48.978-48.982-97.966-97.968-146.95-146.956-15.198-15.194-30.39-30.386-45.59-45.582-1.128-1.128-2.26-2.218-3.182-3.478-2.162-1.418-4.492-2.594-6.812-3.734-1.46-0.492-2.98-0.87-4.472-1.266-1.162-0.308-2.376-0.51-3.562-0.736z" />
<glyph unicode="&#xea81;" d="M289.656 115.61c-15.2-15.196-30.248-30.392-45.448-45.586-1.132-1.13-2.194-2.216-3.11-3.476-2.164-1.42-4.46-2.594-6.782-3.736-1.458-0.492-2.958-0.864-4.454-1.264-1.166-0.306-2.372-0.514-3.56-0.74-0.382-0.010-0.844-0.028-1.446-0.060-1.542-0.076-5.978 0.248-7.432 0.278-1.894 0.404-3.768 0.892-5.624 1.438-0.39 0.114-0.9 0.284-1.422 0.466-0.586 0.294-1.174 0.59-1.76 0.886-1.492 0.756-2.926 1.638-4.354 2.516-1.156 0.714-1.654 1.29-2.020 1.464-9.588 8.188-18.114 18.014-26.982 26.886-12.636 12.636-25.278 25.278-37.918 37.916-1.126 1.126-2.254 2.25-3.378 3.376-0.72 0.724-1.476 1.41-2.114 2.214-1.14 1.644-2.226 3.3-3.22 5.026-0.6 1.032-1.164 2.060-1.674 3.136-0.926 2.646-1.594 5.362-2.13 8.112-0.12 1.602-0.13 3.194-0.13 4.794-0.004 0.66 0.020 1.308 0.052 1.97 0.12 1.066 0.274 2.306 0.428 3.052 0.318 1.514 1.742 5.614 2.18 7.094 0.912 1.774 1.906 3.51 2.954 5.204 0.298 0.49 0.764 1.156 1.202 1.768-0.808-0.952-1.588-1.934-2.356-2.916 4.698 6.036 3.668 4.75 2.356 2.916 0.312 0.37 0.614 0.744 0.94 1.104 0.454 0.49 0.822 1.076 1.298 1.552 1.534 1.532 3.074 3.070 4.608 4.602 8.154 8.158 16.306 16.314 24.466 24.464 27.306 27.316 54.336 54.63 81.646 81.938 15.56 15.556 34.392 31.114 46.392 46.678v87.93c0-2.438-5.42-5.006-8.066-7.652-48.13-48.134-96.122-96.26-144.246-144.396-16.348-16.338-32.614-32.678-48.954-49.018-23.188-23.188-31.368-55.36-25.56-87.174 4.12-22.586 18.656-39.774 34.292-55.408 18.59-18.592 37.184-37.178 55.774-55.77 14.278-14.272 32.722-25.122 52.99-27.744 30.406-3.946 59.322 4.242 81.596 25.908 0.934 0.908 2.176 1.894 2.176 2.862v88.888c0.004-0.498-0.71-0.998-1.21-1.498zM131.17 138.584c-1.508 1.636-4.8 6.544 0.24-0.29-0.080 0.098-0.154 0.2-0.24 0.29z" />
<glyph unicode="&#xea82;" d="M369.888 381.334c1.268-0.782 2.516-1.594 3.734-2.442-3.518 2.448-4.258 2.91-3.734 2.442z" />
<glyph unicode="&#xea83;" d="M578.16 624.42c0.764 0.986 1.544 1.962 2.35 2.916 1.312 1.834 2.344 3.116-2.35-2.916z" />
<glyph unicode="&#xea84;" d="M538.67 674.54c-23.188-23.188-31.668-55.624-25.868-87.442 4.122-22.588 18.38-40.038 34.014-55.67 18.588-18.594 37.174-37.182 55.764-55.768 14.278-14.274 34.43-24.86 54.696-27.486 21.258-2.746 39.594 0.492 61.594 10.086v83.38c-8-7.544-16.534-15.080-24.074-22.622-1.132-1.128-2.986-2.218-3.904-3.478-2.164-1.418-4.858-2.594-7.178-3.734-1.46-0.492-3.162-0.87-4.656-1.266-1.166-0.31-2.468-0.514-3.656-0.738-0.386-0.012-0.9-0.030-1.494-0.062-1.546-0.080-6.006 0.246-7.464 0.278-1.892 0.402-3.78 0.888-5.63 1.434-0.39 0.114-0.906 0.288-1.428 0.472-0.586 0.29-1.178 0.58-1.762 0.882-1.5 0.758-2.934 1.64-4.36 2.52-1.154 0.708-1.92 1.028-2.284 1.194-9.592 8.188-18.384 17.754-27.25 26.622-12.64 12.636-25.282 25.276-37.92 37.92-1.124 1.118-2.25 2.25-3.378 3.372-0.724 0.722-1.21 1.68-1.85 2.482-0.168 0.238-0.32 0.484-0.476 0.726-1.464 1.624-4.41 5.998-0.284 0.434-0.82 1.3-1.558 2.668-2.328 3.994-0.598 1.034-1.094 2.13-1.606 3.208-0.922 2.648-1.558 5.394-2.096 8.14-0.118 1.598-0.118 3.212-0.118 4.81 0 0.662 0.034 1.322 0.068 1.98 0.12 1.068 0.276 2.308 0.432 3.056 0.314 1.516 1.744 5.62 2.182 7.092 0.912 1.778 1.906 3.512 2.954 5.208 0.298 0.486 0.762 1.156 1.2 1.77-0.806-0.956-1.586-1.93-2.35-2.916 4.694 6.032 3.662 4.75 2.35 2.916 0.312 0.374 0.614 0.748 0.944 1.102 0.454 0.496 0.82 1.080 1.296 1.552 1.538 1.538 3.072 3.072 4.608 4.612 8.16 8.152 16.312 16.312 24.466 24.464 27.31 27.31 56.070 54.624 83.382 81.934 7.408 7.406 15.664 14.806 23.664 22.212v88.63c-44-42.764-86.972-85.52-129.73-128.28-16.342-16.34-34.13-32.68-50.47-49.020z" />
<glyph unicode="&#xea85;" d="M580.404 587.29c-0.206 0.284-0.402 0.536-0.582 0.786 0.094-0.148 0.188-0.286 0.284-0.434 0.016-0.024 0.036-0.042 0.054-0.068 0.090-0.088 0.162-0.188 0.244-0.284z" />
<glyph unicode="&#xea86;" d="M631.604 613.264c-35.428-35.43-70.854-70.854-106.274-106.278-52.246-52.24-104.486-104.482-156.726-156.73-7.46-7.456-14.928-14.918-22.386-22.384-12.078-12.078-12.078-32.232 0-44.312 12.080-12.082 32.236-12.082 44.316 0 35.424 35.422 70.85 70.854 106.27 106.276 52.246 52.24 104.486 104.482 156.726 156.724 7.464 7.458 14.928 14.922 22.386 22.382 12.080 12.080 12.080 32.24 0 44.32-12.080 12.076-32.232 12.076-44.312 0.002v0z" />
<glyph unicode="&#xea87;" d="M473.844 366.868c-14.774-14.77-29.544-29.542-44.314-44.308 2.406-2.41 4.814-4.814 7.22-7.22 1.322-1.334 2.654-2.658 3.98-3.98 0.18-0.18 0.36-0.364 0.54-0.544 1.232-1.236 2.416-2.492 3.56-3.802 0.014-0.020-0.074-0.128-0.060-0.146 0.006-0.006-0.040-0.058-0.034-0.072 0.598-0.912 1.146-1.858 1.676-2.806l44.858 44.856c-1.82 2.2-3.726 4.32-5.746 6.348-3.892 3.886-7.788 7.786-11.68 11.674z" />
<glyph unicode="&#xea88;" d="M369.888 381.334c-0.526 0.468 0.214 0.006 3.734-2.442-1.218 0.848-2.466 1.66-3.734 2.442 0.766-0.684 4.22-3.362 5.64-4.784 1.594-1.588 3.188-3.178 4.782-4.772 1.632-1.634 3.266-3.272 4.902-4.91 14.77 14.772 29.542 29.548 44.316 44.318-2.882 2.884-5.766 5.766-8.648 8.648-3.018 3.016-6.202 5.912-9.54 8.614l-45.050-45.048c1.22-0.65 2.42-1.34 3.598-2.066z" />
<glyph unicode="&#xea89;" d="M653.264 515.326c-1.154 0.708-1.92 1.028-2.284 1.194-4.89 4.174-9.574 8.708-14.164 13.326-14.74-14.738-29.476-29.476-44.212-44.212 3.326-3.322 6.652-6.65 9.976-9.972 2.58-2.58 5.308-5.032 8.156-7.346l45.34 45.34c-0.944 0.54-1.886 1.098-2.812 1.67z" />
<glyph unicode="&#xea8a;" d="M548.29 529.948c14.774 14.774 29.544 29.542 44.314 44.32-2.268 2.26-4.528 4.526-6.792 6.794-1.124 1.118-2.25 2.25-3.378 3.372-0.724 0.722-1.21 1.68-1.85 2.482-0.168 0.238-0.32 0.484-0.476 0.726-1.464 1.624-4.41 5.998-0.284 0.434-0.82 1.3-1.558 2.668-2.328 3.994-0.31 0.54-0.598 1.096-0.872 1.662l-45.216-45.212c4.73-6.010 9.976-11.666 15.41-17.092 0.488-0.49 0.98-0.99 1.472-1.48z" />
<glyph unicode="&#xea8b;" d="M1024 448c0-282.77-229.23-512-512-512s-512 229.23-512 512c0 282.77 229.23 512 512 512s512-229.23 512-512z" />
<glyph unicode="&#xea8c;" d="M748.87 165.028c0-12.718-10.31-23.028-23.028-23.028h-427.946c-12.718 0-23.028 10.31-23.028 23.028v427.946c0 12.718 10.31 23.028 23.028 23.028h427.946c12.716 0 23.028-10.31 23.028-23.028v-427.946z" />
<glyph unicode="&#xea8d;" d="M558.052 354.576c0 25.438-20.62 46.054-46.052 46.054-25.436 0-46.052-20.616-46.052-46.054 0-14.924 7.13-27.638 18.136-36.054l-17.858-70.522h90.642l-17.714 69.954c11.442 8.38 18.898 21.356 18.898 36.622z" />
<glyph unicode="&#xea8e;" d="M474.040 278l-7.814-30h90.644l-7.814 30z" />
<glyph unicode="&#xea8f;" d="M468.548 258l-2.322-10h90.644l-2.324 10z" />
<glyph unicode="&#xea90;" d="M274.87 164.538c0-12.664 10.32-22.536 22.986-22.536h315.458l-338.444 337.996v-315.46z" />
<glyph unicode="&#xea91;" d="M748.87 592.974c0 12.716-10.31 23.026-23.028 23.026h-427.946c-12.718 0-23.028-10.31-23.028-23.026v-49.948c0-12.716 10.31-23.026 23.028-23.026h427.946c12.716 0 23.028 10.31 23.028 23.026v49.948z" />
<glyph unicode="&#xea92;" d="M748.87 592.974c0 12.716-10.31 23.026-23.028 23.026h-427.946c-12.718 0-23.028-10.31-23.028-23.026v-35.948c0-12.716 10.31-23.026 23.028-23.026h427.946c12.716 0 23.028 10.31 23.028 23.026v35.948z" />
<glyph unicode="&#xea93;" d="M704.56 574.404c0-11.764-16.109-21.3-35.98-21.3s-35.98 9.536-35.98 21.3c0 11.764 16.109 21.3 35.98 21.3s35.98-9.536 35.98-21.3z" />
<glyph unicode="&#xea94;" d="M391.4 574.404c0-11.764-16.109-21.3-35.98-21.3s-35.98 9.536-35.98 21.3c0 11.764 16.109 21.3 35.98 21.3s35.98-9.536 35.98-21.3z" />
<glyph unicode="&#xea95;" d="M381.162 580.844c0-8.208-11.239-14.862-25.104-14.862s-25.104 6.654-25.104 14.862c0 8.208 11.239 14.862 25.104 14.862s25.104-6.654 25.104-14.862z" />
<glyph unicode="&#xea96;" d="M694.32 580.844c0-8.208-11.239-14.862-25.104-14.862s-25.104 6.654-25.104 14.862c0 8.208 11.239 14.862 25.104 14.862s25.104-6.654 25.104-14.862z" />
</font>
</defs>
</svg>
